<svg width="156" height="112" viewBox="0 0 156 112" fill="none" xmlns="http://www.w3.org/2000/svg">
<g clip-path="url(#clip0_80_100)">
<path d="M97.2742 20.37C97.2009 20.6139 96.9943 20.6798 96.8377 20.7919C92.6753 23.82 88.5128 26.848 84.3503 29.8761C77.0648 35.1741 69.7783 40.4699 62.4906 45.7636C50.8161 54.2413 39.1438 62.7201 27.4737 71.2C27.0006 71.5296 26.8274 71.4604 26.5275 71.0154C22.1185 64.5154 17.7039 58.0241 13.2838 51.5417C12.9672 51.077 12.9972 50.9088 13.5036 50.6419C15.7248 49.475 17.9305 48.2774 20.1205 47.0491C20.637 46.759 20.8469 46.7623 21.1201 47.3523C23.489 52.6261 25.9044 57.8769 28.2866 63.1442C28.5065 63.6353 28.6498 63.6617 29.0596 63.3255C38.0465 55.9487 47.0423 48.5807 56.0469 41.2215C67.546 31.801 79.0372 22.3773 90.5207 12.9503C90.9672 12.5845 91.1471 12.6207 91.4803 13.0591C93.3095 15.3928 95.1752 17.7001 97.0243 20.0173C97.101 20.136 97.1909 20.2579 97.2742 20.37Z" fill="#D90000"/>
<path d="M104.624 47.6262C109.149 47.6262 113.673 47.6262 118.194 47.6262C119.139 47.6485 120.063 47.3494 120.811 46.7789C121.559 46.2083 122.087 45.4008 122.306 44.4915C122.427 43.9346 122.425 43.3584 122.3 42.8023C122.175 42.2462 121.93 41.7234 121.582 41.2695C121.234 40.8157 120.791 40.4416 120.284 40.1728C119.776 39.904 119.216 39.7468 118.641 39.7121C118.331 39.6923 118.018 39.7121 117.705 39.7121C109.904 39.7121 102.104 39.7121 94.3057 39.7121C93.5645 39.7433 92.8299 39.5625 92.1899 39.1913C91.5499 38.8201 91.0317 38.2742 90.6974 37.619C90.3363 37.0026 90.1596 36.2974 90.1879 35.5854C90.2162 34.8735 90.4483 34.1842 90.8573 33.5977C91.1887 33.0411 91.6626 32.5808 92.2311 32.2631C92.7997 31.9454 93.4428 31.7816 94.0957 31.7881C102.295 31.7717 110.498 31.709 118.698 31.8079C124.815 31.8804 130.002 36.8576 130.442 42.8303C130.647 45.776 129.742 48.6925 127.901 51.0166C126.06 53.3407 123.414 54.9077 120.473 55.415C119.726 55.5418 118.969 55.6014 118.211 55.593C111.817 55.593 105.42 55.593 99.0234 55.5765C98.427 55.5765 98.2405 55.7116 98.2439 56.3313C98.2705 61.3349 98.2705 66.3395 98.2439 71.3453C98.2439 73.6526 96.5346 75.3963 94.3124 75.4292C93.7696 75.4429 93.2297 75.347 92.7256 75.1474C92.2215 74.9479 91.7638 74.6489 91.3803 74.2686C90.9968 73.8883 90.6957 73.4347 90.4952 72.9355C90.2947 72.4364 90.1992 71.902 90.2143 71.3651C90.2143 65.8715 90.2143 60.3779 90.2143 54.8843C90.2143 52.722 90.2409 50.563 90.2143 48.4041C90.2143 47.7844 90.3376 47.5899 91.0039 47.5932C95.5451 47.6393 100.08 47.6262 104.624 47.6262Z" fill="#DA0000"/>
<path d="M43.8227 48.0646C42.1868 49.4193 40.5609 50.7806 38.9217 52.1288C36.645 53.9944 34.3649 55.8545 32.0816 57.7091C31.9591 57.8013 31.8312 57.886 31.6985 57.963C31.152 57.7817 31.242 57.3037 31.242 56.9115C31.242 47.346 31.242 37.7817 31.242 28.2185C31.242 27.2032 31.3219 27.1241 32.3448 27.1241C35.8198 27.1241 39.2949 27.1241 42.7699 27.1241C43.2153 27.1118 43.6572 27.2044 44.0593 27.3944C44.0593 28.8447 44.0826 30.295 44.0859 31.7486C44.0859 36.8027 44.0859 41.8568 44.0859 46.9109C44.0859 47.1977 44.0693 47.4812 44.0593 47.768L43.8227 48.0646Z" fill="#284790"/>
<path d="M64.8096 75.3927H52.0989C52.0989 69.2651 52.0989 63.1376 52.0989 57.01C52.0761 56.704 52.1402 56.3978 52.2838 56.1258C52.4274 55.8539 52.6449 55.627 52.9118 55.4707C53.7814 54.9005 54.621 54.2808 55.4639 53.671C58.3226 51.6076 61.1801 49.5453 64.0366 47.4842C64.2231 47.349 64.3898 47.0425 64.643 47.1545C64.8962 47.2666 64.7829 47.6259 64.8162 47.8764C64.8212 47.9642 64.8212 48.0523 64.8162 48.1401L64.8096 75.3927Z" fill="#28478F"/>
<path d="M64.9761 12.5684C64.9928 12.7859 65.0228 13.0035 65.0228 13.2276C65.0228 18.8596 65.0228 24.4916 65.0228 30.1237C65.0439 30.3173 65.0153 30.5131 64.9396 30.6928C64.8639 30.8726 64.7435 31.0306 64.5897 31.1521C62.2941 32.9913 60.0151 34.857 57.7329 36.716C57.6021 36.5385 57.462 36.3679 57.3131 36.2051C55.776 34.6779 54.2367 33.155 52.6952 31.6366C52.5619 31.5048 52.4454 31.251 52.2255 31.3465C52.0056 31.4421 52.0989 31.6992 52.0989 31.8838C52.0989 35.0284 52.0989 38.1718 52.0989 41.3141C51.929 41.4559 51.8557 41.3504 51.849 41.1988C51.829 40.912 51.849 40.6252 51.849 40.3418C51.849 37.4587 51.849 34.5746 51.849 31.6893C51.849 31.4487 51.8756 31.2081 51.8923 30.9675C52.1488 30.6379 52.0956 30.2588 52.0956 29.8896V13.633C52.0956 12.6244 52.1355 12.5881 53.1484 12.5881L64.9761 12.5684Z" fill="#2E53A0"/>
<path d="M72.8458 51.73V41.0142C74.2429 39.999 75.6389 38.9838 77.0338 37.9685L85.01 32.1937C85.1499 32.0915 85.2766 31.9267 85.4765 32.0256C85.6764 32.1245 85.6464 32.3189 85.6564 32.4936C85.6664 32.6683 85.6564 32.8463 85.6564 33.021C85.6564 43.3116 85.6564 53.6033 85.6564 63.8961C85.4265 63.6917 85.1833 63.5005 84.9634 63.283C81.2085 59.5913 77.5069 55.8436 73.6654 52.2376C73.4611 51.9783 73.1709 51.7985 72.8458 51.73Z" fill="#2F54A1"/>
<path d="M85.6764 13.857C83.7806 15.4227 81.8916 16.9916 79.9891 18.554C77.8146 20.3405 75.6345 22.1216 73.4488 23.8971C73.2856 24.0289 73.1557 24.2267 72.9091 24.2267C72.7758 24.0916 72.8292 23.93 72.8292 23.785C72.8292 16.094 72.8292 8.40296 72.8292 0.71194C72.8292 0.603167 72.8291 0.491097 72.8524 0.382324H84.5503C85.6598 0.382324 85.6831 0.408694 85.6864 1.47994C85.6775 5.61332 85.6742 9.73901 85.6764 13.857Z" fill="#2F54A1"/>
<path d="M72.8458 51.73C73.1757 51.7956 73.4711 51.9756 73.6788 52.2376C77.5203 55.8436 81.2219 59.5913 84.9768 63.283C85.1967 63.5005 85.4399 63.6917 85.6698 63.8961L85.9164 64.1598V75.2942C85.895 75.3324 85.8625 75.3635 85.8231 75.3832L76.1609 75.4095C75.0981 75.4095 74.0319 75.4095 72.9657 75.3898L72.8558 75.2843C72.8558 74.4701 72.8325 73.656 72.8325 72.8451C72.8325 66.0902 72.8325 59.3375 72.8325 52.587C72.8225 52.3002 72.8358 52.0134 72.8458 51.73Z" fill="#284790"/>
<path d="M43.9526 75.3927H31.242C31.242 74.3577 31.2786 73.3227 31.242 72.2877C31.2166 71.9601 31.2846 71.6319 31.4383 71.3406C31.592 71.0493 31.8253 70.8064 32.1116 70.6397C34.2239 69.1366 36.2962 67.5808 38.3919 66.058C39.9479 64.9208 41.5171 63.8034 43.0797 62.6729C43.2112 62.551 43.3728 62.4655 43.5483 62.425C43.7237 62.3845 43.9069 62.3904 44.0793 62.4421V75.2971L43.9526 75.3927Z" fill="#284790"/>
<path d="M62.5839 94.626C62.5839 92.5329 62.5839 90.4398 62.5839 88.3468C62.5839 87.4997 62.6373 87.4601 63.5035 87.4601C65.0628 87.4601 66.622 87.4601 68.168 87.4601C68.9953 87.4481 69.8162 87.604 70.5802 87.9183C72.2827 88.6533 73.2022 89.9256 73.2122 91.7748C73.2222 93.6239 72.366 94.9984 70.6168 95.7302C70.0337 95.9708 70.077 96.1982 70.3536 96.6432C71.2198 98.054 72.0595 99.4812 72.9024 100.928C73.0324 101.149 73.3222 101.386 73.1889 101.627C73.0556 101.868 72.6658 101.759 72.3893 101.765C71.8096 101.785 71.2299 101.765 70.6535 101.765C70.4557 101.786 70.2563 101.743 70.0852 101.643C69.9141 101.542 69.7803 101.39 69.7039 101.208C68.8743 99.7218 68.0047 98.2418 67.1751 96.7718C67.0982 96.5914 66.9672 96.4387 66.7997 96.3343C66.6323 96.23 66.4365 96.179 66.2389 96.1883C65.6991 96.1883 65.4759 96.3564 65.4859 96.9102C65.5126 98.255 65.4659 99.5999 65.5026 100.945C65.5226 101.604 65.2727 101.772 64.6463 101.772C62.5639 101.772 62.5639 101.772 62.5639 99.7284V94.626H62.5839ZM65.5159 91.9429V93.4591C65.5159 93.7459 65.5692 94.0129 65.929 94.0162C66.8586 94.0162 67.7981 94.1315 68.7177 93.9338C69.7172 93.7195 70.267 92.9449 70.2537 91.9C70.2403 90.8552 69.7006 90.1399 68.6544 89.9223C67.7748 89.7542 66.8819 89.8597 65.989 89.8465C65.6558 89.8465 65.5126 90.0344 65.5126 90.3476C65.5126 90.8848 65.5159 91.4155 65.5159 91.9429Z" fill="#3A3A3A"/>
<path d="M-5.67822e-06 94.5863C-5.67822e-06 92.6086 -5.67822e-06 90.6309 -5.67822e-06 88.6532C-5.67822e-06 87.4732 -1.21919e-05 87.4699 1.15944 87.4699C2.63208 87.4699 4.10139 87.4699 5.5707 87.4699C6.44256 87.457 7.30713 87.629 8.10621 87.9742C9.79875 88.7389 10.6683 90.0442 10.645 91.8868C10.6217 93.7293 9.77874 95.0148 8.0862 95.7136C7.47982 95.9641 7.49977 96.1849 7.79963 96.6662C8.68255 98.0934 9.52882 99.5437 10.3851 100.984C10.8116 101.699 10.7916 101.755 9.99196 101.736C9.19234 101.716 8.19281 102.022 7.49981 101.601C6.8068 101.179 6.61692 100.259 6.20378 99.5569C5.64072 98.6076 5.07093 97.6583 4.5645 96.6794C4.26131 96.0992 3.78153 96.1652 3.30842 96.2245C2.772 96.2937 2.93863 96.7552 2.9353 97.0749C2.91864 98.3505 2.90198 99.6294 2.9353 100.905C2.95196 101.521 2.76872 101.815 2.10569 101.749C1.72725 101.729 1.34796 101.729 0.969509 101.749C-3.49899e-05 101.749 -0.00334395 101.749 -0.00667572 100.813V94.5863H-5.67822e-06ZM2.93197 91.9494V93.4656C2.93197 93.759 3.01194 94.0062 3.36511 94.0062C4.27468 94.0062 5.1909 94.1117 6.09047 93.9304C7.11333 93.7227 7.69305 92.9415 7.66973 91.8703C7.64641 90.799 7.10663 90.1167 6.05379 89.919C5.1742 89.7574 4.28129 89.8563 3.38838 89.8497C3.0552 89.8497 2.92863 90.0607 2.92863 90.3672C2.92197 90.9078 2.92196 91.4352 2.92196 91.9626L2.93197 91.9494Z" fill="#3A3A3A"/>
<path d="M103.598 94.6589C103.598 96.752 103.578 98.845 103.598 100.922C103.598 101.581 103.378 101.795 102.745 101.739C102.302 101.703 101.856 101.703 101.412 101.739C100.813 101.789 100.639 101.522 100.649 100.964C100.676 99.5109 100.649 98.0573 100.649 96.6037C100.649 95.6642 100.649 95.661 99.6498 95.6577H95.4784C94.5522 95.6577 94.5322 95.6774 94.5288 96.5674C94.5288 98.021 94.5088 99.4779 94.5288 100.932C94.5288 101.518 94.3489 101.785 93.7226 101.736C93.211 101.706 92.6981 101.706 92.1866 101.736C91.7535 101.736 91.5869 101.551 91.5902 101.142C91.5902 100.615 91.5902 100.084 91.5902 99.557C91.5902 95.8324 91.5902 92.1088 91.5902 88.3863C91.5902 87.4436 91.5903 87.4436 92.5665 87.4403C92.943 87.4403 93.3261 87.47 93.6992 87.4403C94.3656 87.3777 94.5455 87.6744 94.5288 88.2875C94.4989 89.6751 94.5288 91.0628 94.5288 92.4505C94.5288 93.0636 94.6988 93.3207 95.3618 93.3042C96.8744 93.2679 98.3904 93.2745 99.903 93.3042C100.476 93.3042 100.699 93.1196 100.689 92.5395C100.663 91.1057 100.689 89.6718 100.689 88.2545C100.689 87.6579 100.873 87.4041 101.496 87.4568C101.963 87.4914 102.431 87.4914 102.898 87.4568C103.448 87.4206 103.638 87.6414 103.631 88.182C103.585 90.3377 103.598 92.4999 103.598 94.6589Z" fill="#3A3A3A"/>
<path d="M58.9556 101.762C57.2897 101.736 57.6496 101.983 57.0798 100.444C56.5101 98.9043 56.8499 99.1053 55.1474 99.0856C53.9446 99.0856 52.7418 99.0856 51.5391 99.0856C51.4409 99.0677 51.34 99.0696 51.2426 99.0911C51.1451 99.1127 51.0531 99.1534 50.972 99.211C50.8908 99.2685 50.8221 99.3416 50.7701 99.426C50.7182 99.5104 50.684 99.6042 50.6695 99.702C50.6544 99.7668 50.632 99.8298 50.6029 99.8898C50.343 100.493 50.3863 101.38 49.8266 101.66C49.0936 102.022 48.1607 101.762 47.3244 101.775C46.9446 101.775 46.9579 101.535 47.0512 101.274C47.2511 100.714 47.4577 100.154 47.6609 99.5932C49.0369 95.7993 50.4263 92.012 51.7823 88.205C51.9789 87.6545 52.2555 87.4337 52.8418 87.4732C53.5075 87.5159 54.1752 87.5159 54.8409 87.4732C55.3573 87.4403 55.5373 87.7073 55.6872 88.1325C56.84 91.3253 57.9983 94.5182 59.1622 97.7111C59.5553 98.7889 59.9518 99.8668 60.335 100.948C60.6115 101.722 60.5682 101.779 59.7553 101.792C59.4921 101.762 59.2288 101.762 58.9556 101.762ZM53.838 91.0825H53.6481C53.0439 92.8075 52.4431 94.5314 51.8456 96.2542C51.7357 96.5838 51.8756 96.7058 52.1788 96.7058H55.254C55.5539 96.7058 55.7338 96.5805 55.6205 96.2542C55.0363 94.5336 54.4422 92.8097 53.838 91.0825Z" fill="#3A3A3A"/>
<path d="M87.4822 91.9297C87.1491 91.9297 86.8159 91.9297 86.4827 91.9297C86.3166 91.9521 86.1476 91.9229 85.999 91.8461C85.8504 91.7693 85.7295 91.6489 85.6531 91.5012C84.507 89.4774 80.9886 89.4049 79.3894 91.1156C77.6968 92.9153 77.7635 96.3894 79.496 98.1496C80.982 99.6526 84.3637 99.7746 85.6564 97.642C85.7285 97.5059 85.8397 97.394 85.9762 97.3206C86.1126 97.2473 86.2681 97.2157 86.4228 97.23C87.1358 97.2464 87.8487 97.2497 88.5584 97.23C89.1381 97.23 89.2048 97.4673 88.9915 97.9222C87.922 100.229 86.0562 101.456 83.5607 101.802C80.2889 102.257 77.2304 100.711 75.881 97.9353C75.1886 96.4926 74.9657 94.8728 75.2432 93.2994C75.5207 91.726 76.2848 90.2766 77.4302 89.1511C80.8186 85.9604 86.9092 86.9427 88.8782 91.0002C89.2814 91.8342 89.2114 91.9199 88.2885 91.9265L87.4822 91.9297Z" fill="#3A3A3A"/>
<path d="M32.5114 91.3758C32.2882 91.3758 32.065 91.3758 31.8451 91.3758C31.6193 91.4249 31.3831 91.3872 31.1844 91.2703C30.9858 91.1533 30.8396 90.966 30.7756 90.7462C30.3025 89.6552 28.4867 89.2959 27.5338 90.0343C27.3658 90.1701 27.2282 90.3392 27.13 90.5307C27.0318 90.7221 26.9751 90.9318 26.9635 91.1461C26.9519 91.3605 26.9857 91.5749 27.0627 91.7757C27.1396 91.9764 27.2581 92.1591 27.4105 92.3119C27.8518 92.6875 28.3736 92.9591 28.9365 93.1063C29.936 93.4359 30.9788 93.7259 31.9683 94.1347C35.1835 95.4531 34.817 99.3096 32.7313 100.846C30.7322 102.322 27.1239 102.223 25.2248 100.595C24.5249 100.005 24.0607 99.1865 23.9155 98.2878C23.8422 97.8494 23.9721 97.6055 24.4652 97.6286C24.865 97.6286 25.2682 97.6484 25.668 97.6286C26.4076 97.5824 26.9407 97.6286 27.2972 98.5219C27.7969 99.7876 30.2025 99.8667 31.0021 98.746C31.2383 98.3945 31.3291 97.9668 31.256 97.551C31.1829 97.1352 30.9513 96.7631 30.609 96.5112C30.0857 96.1725 29.5058 95.9281 28.8964 95.7893C27.9521 95.5274 27.0243 95.2104 26.1178 94.84C23.1025 93.5578 23.4524 89.698 25.4314 88.2873C27.3272 86.9491 30.7123 86.9194 32.568 88.2873C33.3586 88.8789 33.8989 89.7399 34.084 90.7034C34.2006 91.2176 34.0174 91.3989 33.5176 91.3626C33.1811 91.3626 32.8446 91.3758 32.5114 91.3758Z" fill="#3A3A3A"/>
<path d="M36.7728 94.573C36.7728 92.4569 36.7894 90.3408 36.7728 88.2279C36.7728 87.6248 36.976 87.427 37.589 87.4369C39.8391 87.4676 42.0891 87.4676 44.3392 87.4369C44.9556 87.4369 45.2187 87.5918 45.1987 88.251C45.1521 90.0276 45.3687 89.7936 43.6261 89.8068C42.5367 89.8068 41.4439 89.8233 40.3511 89.8068C39.8946 89.8068 39.7047 89.9815 39.7113 90.4298C39.7113 91.2011 39.728 91.9724 39.7113 92.7371C39.7113 93.192 39.9113 93.3634 40.3577 93.3601C41.5172 93.3601 42.69 93.3798 43.8328 93.3601C44.4225 93.3601 44.6124 93.5743 44.6024 94.138C44.5758 95.908 44.719 95.6212 43.123 95.6443C42.1857 95.6575 41.2495 95.6575 40.3144 95.6443C39.8846 95.6443 39.708 95.8157 39.7147 96.231C39.7147 97.0682 39.7147 97.9055 39.7147 98.7427C39.7147 99.2371 39.9346 99.4019 40.4077 99.4019C41.7404 99.4019 43.0731 99.4019 44.4058 99.4019C44.9755 99.4019 45.2021 99.5766 45.1921 100.163C45.1522 102.045 45.3587 101.765 43.6161 101.778C41.6171 101.778 39.6181 101.759 37.6024 101.778C36.936 101.778 36.7594 101.554 36.7661 100.938C36.7894 98.7954 36.7728 96.6892 36.7728 94.573Z" fill="#3A3A3A"/>
<path d="M13.2504 94.5105C13.2504 92.4174 13.2504 90.3244 13.2504 88.2478C13.2504 87.6644 13.4103 87.4304 14.0467 87.4402C16.3189 87.4732 18.5913 87.4732 20.8635 87.4402C21.4766 87.4402 21.6865 87.6347 21.6731 88.2379C21.6332 90.0343 21.8464 89.7937 20.1206 89.8102C19.0511 89.8102 17.9815 89.8365 16.912 89.8102C16.349 89.8102 16.1624 90.0211 16.1824 90.5518C16.209 91.2341 16.2124 91.9197 16.1824 92.5987C16.1557 93.1624 16.3623 93.3964 16.9487 93.3799C18.0848 93.3502 19.221 93.3799 20.3571 93.3799C20.8702 93.3799 21.0801 93.5546 21.0767 94.0721C21.0567 95.9707 21.21 95.6345 19.5474 95.6608C18.6578 95.6608 17.7649 95.6806 16.882 95.6608C16.4056 95.6608 16.1824 95.8059 16.1924 96.3003C16.2124 97.1145 16.2091 97.9484 16.1924 98.746C16.1924 99.224 16.3823 99.4053 16.8587 99.4053C18.1915 99.4053 19.5242 99.4251 20.8569 99.4053C21.4766 99.4053 21.6731 99.6195 21.6598 100.216C21.6198 102.026 21.8231 101.772 20.1006 101.782C18.1015 101.782 16.1024 101.782 14.0867 101.782C13.4537 101.782 13.2271 101.597 13.2337 100.958C13.2504 98.7955 13.2504 96.6629 13.2504 94.5105Z" fill="#3A3A3A"/>
<path d="M124.715 90.8321C124.571 91.1386 124.442 91.4023 124.318 91.6759C122.912 94.7919 121.505 97.9078 120.097 101.024C119.93 101.393 119.854 101.775 119.251 101.775C118.647 101.775 118.561 101.429 118.391 101.05C116.972 97.9144 115.551 94.7798 114.13 91.6463C114.023 91.4056 113.906 91.1716 113.76 90.8585C113.635 91.0789 113.592 91.3351 113.637 91.5836C113.637 94.7578 113.617 97.932 113.637 101.103C113.637 101.723 113.38 101.762 112.887 101.762C112.394 101.762 112.134 101.703 112.141 101.103C112.167 96.8707 112.141 92.6384 112.164 88.4094C112.164 88.1457 111.967 87.7502 112.44 87.6414C113.107 87.4733 113.713 87.6414 113.92 88.1095C114.786 90.0191 115.65 91.9286 116.512 93.8382L119.137 99.6559C119.47 99.4779 119.504 99.178 119.617 98.934C121.221 95.3962 122.819 91.8583 124.411 88.3204C124.556 88.0251 124.807 87.7939 125.115 87.6719C125.424 87.55 125.767 87.5462 126.077 87.6612C126.411 87.7931 126.274 88.0732 126.274 88.2875C126.274 91.7067 126.274 95.1226 126.274 98.5352C126.274 99.4186 126.231 100.302 126.291 101.172C126.334 101.831 125.957 101.762 125.544 101.759C125.131 101.756 124.785 101.838 124.795 101.182C124.828 97.9221 124.811 94.6589 124.795 91.399C124.825 91.3047 124.834 91.2047 124.82 91.1065C124.806 91.0084 124.77 90.9146 124.715 90.8321Z" fill="#787878"/>
<path d="M120.017 70.3962C118.24 68.4031 116.505 66.3715 114.813 64.3016C116.435 63.6786 117.858 62.6799 119.377 61.8657C119.96 61.5361 120.517 61.1636 121.233 61.2526C121.626 61.7009 122.026 62.1426 122.412 62.5975C123.696 64.1203 124.976 65.6431 126.251 67.1659C125.847 67.1897 125.455 67.3024 125.101 67.4955L120.017 70.3962Z" fill="#2C327D"/>
<path d="M138.755 92.632C138.755 92.1112 138.775 91.5904 138.755 91.0696C138.735 90.6872 138.891 90.5916 139.251 90.5784C140.231 90.5455 140.231 90.529 140.231 91.5146C140.231 94.7085 140.211 97.8992 140.231 101.093C140.231 101.693 140.008 101.775 139.498 101.752C138.988 101.729 138.665 101.752 138.738 101.116C138.766 100.626 138.766 100.134 138.738 99.6429C138.548 99.6099 138.518 99.7055 138.468 99.7714C137.066 101.614 135.073 102.3 132.804 101.723C131.799 101.45 130.898 100.887 130.217 100.106C129.536 99.3243 129.107 98.3598 128.983 97.3356C128.72 95.9155 128.925 94.4495 129.566 93.1527C131.312 89.7874 136.186 89.405 138.438 92.4474L138.602 92.6517L138.755 92.632ZM138.755 96.1094C138.764 95.6644 138.71 95.2204 138.592 94.7909C138.404 93.992 137.976 93.2682 137.364 92.715C136.752 92.1618 135.984 91.8053 135.163 91.6925C133.417 91.4519 131.745 92.2002 130.988 93.6702C130.551 94.4687 130.335 95.3675 130.362 96.2753C130.39 97.1831 130.66 98.0676 131.145 98.8386C131.407 99.2768 131.762 99.6537 132.185 99.9433C132.609 100.233 133.09 100.428 133.597 100.516C136.436 101.123 138.745 99.1682 138.748 96.1094H138.755Z" fill="#787878"/>
<path d="M121.233 61.2523C120.517 61.1633 119.96 61.5523 119.377 61.8654C117.858 62.6795 116.435 63.6783 114.813 64.3013C112.891 62.139 111.01 59.9415 109.169 57.7089C111.951 57.7089 114.733 57.7089 117.498 57.6826C117.709 57.6729 117.92 57.7129 118.112 57.7995C118.304 57.886 118.473 58.0165 118.604 58.1803C119.484 59.2054 120.36 60.2305 121.233 61.2523Z" fill="#30427E"/>
<path d="M120.017 70.3959L125.101 67.4821C125.456 67.2932 125.848 67.1861 126.251 67.1689C127.79 68.7511 129.139 70.4948 130.582 72.1626C130.955 72.5944 131.405 72.9735 131.608 73.5272L123.012 73.5668C122.902 73.5681 122.792 73.5431 122.694 73.4937C122.595 73.4444 122.51 73.3722 122.446 73.2833C121.636 72.3175 120.823 71.3584 120.017 70.3959Z" fill="#29237E"/>
<path d="M151.366 95.6414C151.366 94.6723 151.366 93.7033 151.366 92.7342C151.366 91.63 151.405 91.7915 150.443 91.8212C149.94 91.8212 149.82 91.6728 149.793 91.1982C149.76 90.5983 150.073 90.539 150.523 90.5884C151.189 90.684 151.455 90.4401 151.376 89.7578C151.319 89.2798 151.375 88.7887 151.359 88.3075C151.322 87.7043 151.729 87.7768 152.108 87.7702C152.488 87.7636 152.881 87.7504 152.858 88.3239C152.835 88.8975 152.858 89.4282 152.858 89.972C152.835 90.4203 152.991 90.6115 153.468 90.5884C154.134 90.5587 154.801 90.5884 155.467 90.5884C156.02 90.5884 155.963 90.918 155.98 91.2938C155.997 91.6695 155.847 91.8343 155.437 91.8212C154.751 91.7948 154.058 91.8212 153.368 91.8212C152.998 91.8212 152.855 91.9365 152.855 92.309C152.855 94.5108 152.855 96.716 152.878 98.9013C152.901 100.088 153.325 100.45 154.544 100.51C154.767 100.51 154.99 100.51 155.21 100.51C155.993 100.51 156.09 100.638 155.99 101.406C155.96 101.657 155.86 101.756 155.617 101.736C154.927 101.766 154.237 101.742 153.551 101.663C152.245 101.426 151.622 100.764 151.449 99.4584C151.424 99.3066 151.407 99.1537 151.399 99.0002C151.399 97.8762 151.399 96.7522 151.399 95.6315L151.366 95.6414Z" fill="#787878"/>
<path d="M52.1155 41.3073C52.1155 38.1627 52.1155 35.0193 52.1155 31.877C52.1155 31.6924 52.0289 31.4287 52.2421 31.3397C52.4553 31.2507 52.5753 31.4979 52.7119 31.6297C54.2556 33.1504 55.7949 34.6732 57.3297 36.1982C57.4787 36.3611 57.6188 36.5316 57.7495 36.7091C55.8971 38.2913 54.0246 39.8174 52.1155 41.3073Z" fill="#28478F"/>
<path d="M145.055 92.2266C145.374 91.717 145.81 91.2885 146.326 90.9753C146.843 90.6622 147.427 90.4733 148.03 90.4236C148.297 90.3972 148.72 90.1236 148.793 90.7136C148.91 91.6497 148.823 91.8343 148.18 91.8903C145.981 92.0749 144.988 93.0836 144.938 95.292C144.895 97.2268 144.899 99.1683 144.938 101.103C144.938 101.719 144.685 101.762 144.192 101.762C143.699 101.762 143.436 101.71 143.443 101.103C143.471 97.8069 143.471 94.5042 143.443 91.1949C143.443 90.5027 143.832 90.6147 144.249 90.5818C144.732 90.5455 145.008 90.6576 144.938 91.2212C144.877 91.5604 144.917 91.91 145.055 92.2266Z" fill="#787878"/>
<path d="M64.8095 75.3931V48.1438C64.8145 48.056 64.8145 47.968 64.8095 47.8801C64.7762 47.6296 64.9228 47.2901 64.6363 47.1583C64.3497 47.0264 64.2164 47.3462 64.0298 47.4879C61.169 49.5447 58.3114 51.607 55.4572 53.6748C54.6143 54.2846 53.7914 54.9042 52.9051 55.4745C52.6382 55.6308 52.4207 55.8576 52.2771 56.1296C52.1334 56.4016 52.0694 56.7078 52.0922 57.0138C52.1088 63.1413 52.0922 69.2689 52.0922 75.3964H52.0255H51.9622L51.8622 75.2877C51.8622 68.9393 51.8545 62.592 51.839 56.2458C51.8306 56.1166 51.857 55.9875 51.9155 55.8716C51.974 55.7558 52.0626 55.6574 52.1721 55.5866L64.4997 46.6375C64.6196 46.5485 64.7429 46.387 64.9028 46.4529C65.0627 46.5188 65.026 46.7594 65.026 46.9243C65.026 56.2458 65.026 65.5673 65.026 74.8888C65.0494 75.0635 65.1827 75.3569 64.8095 75.3931Z" fill="#2F54A1"/>
<path d="M44.0559 27.3875C43.6539 27.1975 43.2119 27.1049 42.7666 27.1172C39.2915 27.1172 35.8165 27.1172 32.3414 27.1172C31.3186 27.1172 31.2419 27.1963 31.2386 28.2116C31.2386 37.777 31.2386 47.3413 31.2386 56.9046C31.2386 57.31 31.1487 57.7747 31.6951 57.956C31.5303 58.1667 31.3196 58.338 31.0787 58.4571C30.8888 58.2725 30.9821 58.0417 30.9821 57.8374C30.9821 47.6435 30.9754 37.4474 30.962 27.2491C30.962 26.6854 31.1586 26.5898 31.6484 26.5898C35.5432 26.6063 39.4414 26.6129 43.3363 26.5898C43.976 26.6096 44.1925 26.7876 44.0559 27.3875Z" fill="#2E53A0"/>
<path d="M131.601 73.5273C131.398 72.9735 130.935 72.5945 130.575 72.1627C129.139 70.4948 127.79 68.7512 126.244 67.169C124.965 65.644 123.685 64.1201 122.406 62.5972C122.019 62.1424 121.62 61.7007 121.226 61.2524C120.353 60.2273 119.477 59.2055 118.611 58.1738C118.48 58.01 118.311 57.8795 118.119 57.793C117.926 57.7064 117.716 57.6664 117.505 57.6761C114.726 57.6761 111.944 57.6959 109.175 57.7025C109.062 57.6069 108.925 57.5278 108.912 57.3531C109.045 57.2278 109.212 57.2806 109.359 57.2806C112.251 57.2806 115.143 57.2806 118.021 57.2806C118.152 57.2685 118.283 57.2884 118.404 57.3384C118.525 57.3884 118.631 57.467 118.714 57.5673C123.181 62.8192 127.654 68.0678 132.135 73.313C132.173 73.369 132.205 73.4286 132.231 73.491C132.025 73.6427 131.808 73.5207 131.601 73.5273Z" fill="#3761BC"/>
<path d="M85.9163 64.1595L85.6697 63.8958C85.6697 53.6052 85.6697 43.3136 85.6697 33.0208C85.6697 32.8461 85.6697 32.6681 85.6697 32.4934C85.6697 32.3187 85.6697 32.1176 85.4898 32.0253C85.3099 31.933 85.1566 32.0913 85.0233 32.1934L77.0471 37.9683C75.6477 38.9813 74.2517 39.9965 72.859 41.0139C72.8266 40.8967 72.8361 40.772 72.8859 40.6609C72.9357 40.5498 73.0227 40.4591 73.1323 40.4041L85.6297 31.3331C85.6958 31.2938 85.7649 31.2597 85.8363 31.231C85.9929 31.3628 85.9362 31.5045 85.9362 31.6265C85.9362 42.3807 85.9362 53.1372 85.9362 63.8958C85.9329 63.9848 85.9229 64.0705 85.9163 64.1595Z" fill="#3761BC"/>
<path d="M135.15 110.879C135.46 109.847 135.766 108.812 136.079 107.784C136.153 107.54 136.166 107.22 136.523 107.207C136.879 107.194 136.942 107.537 137.022 107.804C137.308 108.859 137.662 109.895 138.082 110.906C138.342 109.94 138.588 108.974 138.868 108.018C138.958 107.712 138.918 107.118 139.375 107.247C139.831 107.375 139.441 107.857 139.375 108.15C139.105 109.218 138.785 110.273 138.475 111.331C138.405 111.578 138.375 111.888 138.012 111.891C137.649 111.894 137.619 111.585 137.542 111.341C137.249 110.303 136.889 109.286 136.463 108.295L135.763 110.513C135.65 110.873 135.54 111.232 135.43 111.588C135.412 111.675 135.364 111.754 135.294 111.811C135.224 111.867 135.137 111.898 135.047 111.898C134.954 111.898 134.865 111.865 134.796 111.804C134.727 111.743 134.683 111.659 134.673 111.568C134.296 110.25 133.925 108.931 133.561 107.613C133.517 107.448 133.457 107.237 133.721 107.191C133.984 107.145 134.034 107.329 134.08 107.504C134.267 108.163 134.44 108.822 134.62 109.482C134.743 109.943 134.87 110.405 134.997 110.866L135.15 110.879Z" fill="#2F2F2F"/>
<path d="M2.21563 108.763C2.21563 109.597 2.21563 110.431 2.21563 111.265C2.21563 111.486 2.29232 111.842 1.94582 111.835C1.59931 111.829 1.69927 111.469 1.69927 111.248C1.69927 110.124 1.69927 109.004 1.69927 107.88C1.69927 107.656 1.60597 107.342 1.94248 107.27C2.27899 107.197 2.36223 107.527 2.46885 107.755C2.86533 108.615 3.24849 109.485 3.6483 110.345C3.74826 110.556 3.77496 110.906 4.02817 110.922C4.28139 110.939 4.32801 110.593 4.42463 110.382C4.83777 109.501 5.22755 108.612 5.63069 107.745C5.72731 107.53 5.78401 107.234 6.10719 107.28C6.43037 107.326 6.37375 107.642 6.37708 107.867C6.37708 109.01 6.37708 110.174 6.37708 111.301C6.37708 111.506 6.447 111.835 6.1538 111.845C5.82062 111.845 5.88065 111.515 5.87732 111.281C5.87732 110.477 5.87732 109.673 5.87732 108.869L5.66738 108.816C5.3342 109.544 5.02768 110.279 4.66785 110.998C4.51125 111.328 4.4879 111.845 4.05477 111.858C3.62164 111.871 3.6017 111.331 3.44178 111.014C3.06862 110.269 2.73539 109.505 2.38555 108.747L2.21563 108.763Z" fill="#2F2F2F"/>
<path d="M85.6764 13.8568C85.6764 9.73662 85.6764 5.61863 85.6764 1.50283C85.6764 0.431579 85.6498 0.408506 84.5403 0.40521H72.8558C72.7591 -0.0232903 73.0524 0.0129665 73.3256 0.0129665H78.3232C80.6555 0.0129665 82.9877 0.0129665 85.3432 0.0129665C85.8097 0.0129665 85.9363 0.131628 85.9329 0.599681C85.913 4.76272 85.9329 8.92906 85.9329 13.0954C85.9363 13.3723 85.9463 13.659 85.6764 13.8568Z" fill="#3761BC"/>
<path d="M35.5067 109.403H35.7732C36.8827 109.403 37.0626 109.693 36.5828 110.695C36.3329 111.206 35.9014 111.607 35.371 111.823C34.8406 112.039 34.2483 112.054 33.7075 111.865C33.1533 111.679 32.686 111.301 32.3925 110.8C32.099 110.3 31.9992 109.71 32.1116 109.142C32.1761 108.699 32.3658 108.283 32.659 107.942C32.9521 107.601 33.3368 107.348 33.7686 107.214C34.2004 107.08 34.6617 107.069 35.0995 107.182C35.5373 107.296 35.9337 107.53 36.243 107.857C36.4096 108.038 36.7061 108.285 36.4196 108.516C36.1331 108.747 36.0065 108.401 35.8465 108.226C35.5389 107.871 35.1035 107.648 34.6327 107.605C34.1619 107.562 33.6926 107.702 33.3244 107.995C32.5847 108.585 32.4281 109.93 32.9912 110.774C33.2554 111.134 33.6448 111.385 34.0846 111.478C34.5244 111.571 34.9834 111.5 35.3734 111.278C35.6084 111.15 35.8068 110.966 35.9498 110.741C36.0964 110.517 36.253 110.273 36.1131 110.003C35.9732 109.732 35.6833 109.828 35.4467 109.815C35.2102 109.802 34.9136 109.815 34.6437 109.815C34.5138 109.815 34.3506 109.815 34.3439 109.63C34.3372 109.446 34.4905 109.432 34.6237 109.429C34.9136 109.429 35.2035 109.429 35.4934 109.429L35.5067 109.403Z" fill="#2F2F2F"/>
<path d="M44.0559 62.4423C43.8835 62.3906 43.7004 62.3847 43.5249 62.4252C43.3495 62.4657 43.1879 62.5512 43.0564 62.6731C41.4938 63.8036 39.9245 64.921 38.3686 66.0582C36.2729 67.581 34.2006 69.1368 32.0883 70.6399C31.802 70.8066 31.5688 71.0494 31.4151 71.3408C31.2614 71.6321 31.1933 71.9603 31.2186 72.2879C31.2686 73.3229 31.2186 74.3579 31.2186 75.3929C30.8855 75.3929 30.9654 75.1523 30.9654 74.9776C30.9654 73.7679 30.9655 72.5549 30.9488 71.3518C30.9444 71.2432 30.9696 71.1354 31.0218 71.0397C31.074 70.9441 31.1512 70.864 31.2453 70.808L43.7927 61.7007C43.8701 61.6612 43.9517 61.6303 44.0359 61.6084L44.0559 62.4423Z" fill="#2F54A1"/>
<path d="M54.1078 109.597C54.1174 109.913 54.062 110.227 53.9452 110.521C53.8284 110.814 53.6527 111.082 53.4284 111.306C53.2041 111.531 52.936 111.708 52.6405 111.828C52.345 111.947 52.0281 112.005 51.709 112C51.3849 111.998 51.0646 111.93 50.7674 111.803C50.4702 111.675 50.2022 111.488 49.9797 111.255C49.7571 111.022 49.5845 110.747 49.4723 110.446C49.3601 110.145 49.3106 109.825 49.3268 109.505C49.3259 108.869 49.5795 108.258 50.0321 107.807C50.4847 107.355 51.0996 107.1 51.7423 107.095C53.135 107.112 54.1278 108.163 54.1078 109.597ZM49.9265 109.515C49.9265 110.744 50.6162 111.519 51.729 111.525C52.7752 111.525 53.5548 110.708 53.5748 109.587C53.5948 108.466 52.7985 107.57 51.7323 107.573C50.6662 107.576 49.9332 108.335 49.9265 109.515Z" fill="#2F2F2F"/>
<path d="M92.8297 110.705C92.9216 110.218 92.9485 109.722 92.9097 109.228C92.9097 108.744 92.9097 108.259 92.9097 107.774C92.9097 107.567 92.8663 107.254 93.1728 107.267C93.4794 107.28 93.4061 107.596 93.4095 107.798C93.4095 108.964 93.4095 110.131 93.4095 111.301C93.4095 111.509 93.4727 111.783 93.1862 111.862C92.8997 111.941 92.7597 111.684 92.6265 111.486C92.0467 110.626 91.4737 109.759 90.894 108.895C90.774 108.717 90.6974 108.496 90.3942 108.381C90.3191 109.075 90.2968 109.773 90.3276 110.471C90.3276 110.8 90.3276 111.13 90.3276 111.46C90.3276 111.634 90.3076 111.852 90.0644 111.845C89.8211 111.839 89.8211 111.621 89.8211 111.45C89.8211 110.612 89.8211 109.775 89.8211 108.938C89.8211 108.542 89.8211 108.144 89.8211 107.748C89.8211 107.554 89.7911 107.323 90.0277 107.237C90.2642 107.151 90.4409 107.333 90.5675 107.524C91.1705 108.42 91.7669 109.324 92.3733 110.223C92.4628 110.432 92.6247 110.603 92.8297 110.705Z" fill="#2F2F2F"/>
<path d="M79.5926 110.708C79.6833 110.218 79.709 109.718 79.6692 109.221C79.6859 108.783 79.6692 108.341 79.6692 107.903C79.6692 107.665 79.5592 107.27 79.939 107.276C80.2722 107.276 80.1657 107.652 80.1657 107.873C80.179 108.996 80.179 110.12 80.1657 111.245C80.1657 111.469 80.2522 111.776 79.9357 111.865C79.6192 111.954 79.5093 111.683 79.376 111.486C78.7963 110.622 78.2232 109.755 77.6468 108.892C77.5226 108.65 77.3259 108.452 77.0838 108.325V109.62C77.0838 110.259 77.0838 110.899 77.0638 111.535C77.0638 111.693 77.0071 111.865 76.8005 111.865C76.594 111.865 76.574 111.726 76.574 111.591C76.574 110.246 76.574 108.902 76.574 107.56C76.5684 107.521 76.5709 107.481 76.5812 107.443C76.5916 107.406 76.6096 107.37 76.6342 107.339C76.6588 107.308 76.6895 107.283 76.7244 107.264C76.7593 107.245 76.7977 107.234 76.8372 107.23C77.0771 107.204 77.197 107.375 77.3103 107.54C77.9 108.423 78.4864 109.307 79.0795 110.177C79.1848 110.406 79.3657 110.593 79.5926 110.708Z" fill="#2F2F2F"/>
<path d="M26.0211 108.407C26.0211 109.287 26.0378 110.154 26.0211 111.021C26.0211 111.311 26.1977 111.825 25.7312 111.815C25.3514 111.815 25.5147 111.311 25.508 111.031C25.488 109.996 25.4914 108.958 25.508 107.923C25.508 107.679 25.3981 107.343 25.7379 107.237C26.0777 107.132 26.1944 107.441 26.3376 107.652C26.9074 108.496 27.4671 109.343 28.0335 110.187C28.1384 110.407 28.3064 110.592 28.5166 110.718C28.6899 110.016 28.5766 109.34 28.6066 108.678C28.6066 108.302 28.6065 107.929 28.6298 107.554C28.6298 107.392 28.6998 107.224 28.9031 107.254C29.1063 107.283 29.103 107.418 29.1063 107.557C29.1063 108.107 29.1063 108.658 29.1063 109.205C29.1063 109.91 29.1063 110.616 29.1063 111.321C29.1063 111.529 29.163 111.799 28.8631 111.865C28.5633 111.931 28.47 111.7 28.3467 111.535C27.7303 110.619 27.1239 109.696 26.5076 108.78C26.4076 108.628 26.351 108.44 26.0211 108.407Z" fill="#2F2F2F"/>
<path d="M96.9945 109.591C96.9945 110.51 97.3609 111.097 98.0906 111.384C98.8202 111.671 99.5766 111.499 100.236 110.784C100.396 110.609 100.569 110.408 100.789 110.56C101.063 110.751 100.789 110.952 100.669 111.107C100.465 111.354 100.213 111.56 99.9283 111.71C99.6434 111.861 99.3312 111.954 99.0096 111.985C98.6881 112.016 98.3636 111.983 98.0548 111.889C97.7461 111.795 97.4593 111.641 97.211 111.437C96.7063 110.96 96.4134 110.304 96.3965 109.614C96.3797 108.924 96.6402 108.255 97.121 107.755C97.5934 107.327 98.2154 107.097 98.8557 107.114C99.4961 107.131 100.105 107.394 100.553 107.847C100.654 107.963 100.74 108.092 100.809 108.229C100.827 108.251 100.839 108.276 100.846 108.303C100.854 108.33 100.855 108.358 100.851 108.385C100.847 108.413 100.838 108.439 100.823 108.463C100.808 108.486 100.789 108.507 100.766 108.523C100.72 108.555 100.666 108.573 100.609 108.573C100.553 108.573 100.498 108.555 100.453 108.523C100.369 108.452 100.292 108.374 100.223 108.289C99.5832 107.603 98.8403 107.405 98.064 107.715C97.351 107.995 96.9845 108.638 96.9945 109.591Z" fill="#2F2F2F"/>
<path d="M107.599 111.878C107.293 111.825 107.386 111.604 107.446 111.426C107.649 110.843 107.866 110.266 108.083 109.686C108.336 109.004 108.589 108.321 108.849 107.642C108.929 107.435 109.019 107.224 109.305 107.237C109.592 107.25 109.672 107.454 109.752 107.662C110.215 108.901 110.681 110.141 111.138 111.383C111.201 111.552 111.348 111.792 111.051 111.878C110.755 111.964 110.688 111.73 110.641 111.548C110.491 110.915 110.048 110.8 109.479 110.843C108.909 110.886 108.183 110.655 107.963 111.522C107.949 111.612 107.906 111.696 107.841 111.76C107.775 111.824 107.691 111.865 107.599 111.878ZM109.325 110.358C110.112 110.358 110.178 110.276 109.878 109.511C109.712 109.089 109.639 108.315 109.325 108.335C108.852 108.364 108.896 109.096 108.719 109.521C108.422 110.236 108.539 110.355 109.325 110.358Z" fill="#2F2F2F"/>
<path d="M87.0058 111.621C87.0058 111.766 86.979 111.862 86.8458 111.885C86.8123 111.895 86.7771 111.899 86.7421 111.896C86.7071 111.893 86.673 111.883 86.6419 111.867C86.6109 111.851 86.5835 111.828 86.5612 111.802C86.539 111.775 86.5225 111.744 86.5126 111.71C86.326 110.721 85.583 110.837 84.8467 110.827C84.297 110.827 83.8872 110.929 83.7306 111.519C83.684 111.7 83.574 111.941 83.3208 111.849C83.0676 111.756 83.1842 111.519 83.2442 111.348C83.6884 110.102 84.1493 108.86 84.6268 107.623C84.7035 107.412 84.8001 107.208 85.0867 107.224C85.3732 107.241 85.4198 107.402 85.5031 107.593C85.9829 108.874 86.4615 110.155 86.9391 111.437C86.966 111.496 86.9883 111.558 87.0058 111.621ZM85.0966 108.154C84.7891 108.696 84.5518 109.274 84.3903 109.874C84.3687 109.925 84.3602 109.979 84.3654 110.034C84.3706 110.088 84.3894 110.141 84.4202 110.186C84.4509 110.231 84.4926 110.269 84.5414 110.294C84.5903 110.32 84.6449 110.333 84.7001 110.332C84.9886 110.35 85.278 110.35 85.5664 110.332C85.783 110.332 85.8996 110.187 85.8263 109.97C85.6554 109.338 85.4104 108.729 85.0966 108.154Z" fill="#2F2F2F"/>
<path d="M13.0605 111.601C13.0605 111.71 13.0772 111.832 12.9406 111.875C12.9039 111.89 12.8642 111.898 12.8243 111.897C12.7844 111.895 12.7451 111.886 12.7093 111.868C12.6736 111.851 12.6421 111.826 12.617 111.795C12.5919 111.764 12.5738 111.728 12.5641 111.69C12.2309 110.421 11.2314 110.912 10.4318 110.863C10.0386 110.84 9.96529 111.192 9.83202 111.479C9.73873 111.67 9.66873 111.96 9.37886 111.852C9.089 111.743 9.26895 111.502 9.32892 111.338C9.77315 110.116 10.2263 108.895 10.6883 107.675C10.7616 107.471 10.8383 107.247 11.1215 107.234C11.2225 107.229 11.3218 107.26 11.4026 107.32C11.4835 107.38 11.5407 107.466 11.5645 107.563C12.051 108.864 12.5386 110.166 13.0272 111.469C13.0405 111.512 13.0472 111.558 13.0605 111.601ZM11.1447 108.144C10.8432 108.696 10.6073 109.281 10.4418 109.887C10.3485 110.154 10.4984 110.319 10.7749 110.335C11.0412 110.352 11.3082 110.352 11.5745 110.335C11.8677 110.335 11.9644 110.154 11.8678 109.887C11.6884 109.283 11.4461 108.698 11.1447 108.144Z" fill="#2F2F2F"/>
<path d="M16.5123 109.182C17.0526 108.748 17.5532 108.268 18.0082 107.748C18.1481 107.606 18.2814 107.454 18.428 107.323C18.5746 107.191 18.7612 107.105 18.9011 107.263C19.041 107.422 18.8578 107.54 18.7612 107.646C18.3114 108.133 17.8749 108.634 17.4018 109.099C17.0686 109.429 17.0686 109.666 17.4018 109.983C17.8583 110.434 18.288 110.912 18.7178 111.39C18.8345 111.519 19.1011 111.667 18.8712 111.861C18.7046 112 18.488 111.861 18.3414 111.713C17.9449 111.301 17.5617 110.869 17.1553 110.464C17.0087 110.322 16.8954 110.022 16.6388 110.134C16.4489 110.227 16.5456 110.494 16.5356 110.685C16.5189 110.971 16.5356 111.258 16.5123 111.542C16.5123 111.707 16.4356 111.871 16.2324 111.838C16.0291 111.805 16.0225 111.68 16.0225 111.545C16.0225 110.205 16.0225 108.862 16.0225 107.517C16.0225 107.379 16.0858 107.247 16.2457 107.24C16.4056 107.234 16.5123 107.389 16.5156 107.55C16.5156 108.054 16.5123 108.552 16.5123 109.182Z" fill="#2F2F2F"/>
<path d="M60.5183 109.129C60.5183 109.568 60.5449 110.009 60.5183 110.448C60.5102 110.663 60.4587 110.875 60.3667 111.07C60.2748 111.265 60.1442 111.441 59.9827 111.585C59.8213 111.73 59.6322 111.841 59.4267 111.912C59.2211 111.984 59.0031 112.014 58.7857 112C58.5681 112.015 58.3496 111.987 58.1436 111.916C57.9375 111.845 57.7482 111.733 57.5871 111.588C57.426 111.442 57.2965 111.266 57.2064 111.069C57.1164 110.873 57.0676 110.66 57.0632 110.444C57.0299 109.541 57.0632 108.641 57.0632 107.738C57.0632 107.554 57.0232 107.27 57.2864 107.264C57.6196 107.264 57.5563 107.56 57.5596 107.765C57.5763 108.556 57.5596 109.35 57.5763 110.141C57.5963 111.025 58.0194 111.499 58.7657 111.516C59.5121 111.532 59.9852 111.061 60.0152 110.135C60.0385 109.343 60.0151 108.552 60.0351 107.761C60.0351 107.557 59.9918 107.25 60.3117 107.264C60.5749 107.264 60.5315 107.557 60.5349 107.742C60.5349 108.206 60.5349 108.668 60.5349 109.129H60.5183Z" fill="#2F2F2F"/>
<path d="M64.9761 12.568H53.155C52.1555 12.568 52.1022 12.6043 52.1022 13.6129V29.8695C52.1022 30.2387 52.1555 30.6243 51.8989 30.9473C51.8989 24.978 51.8989 19.0054 51.8989 13.0328C51.8989 12.4263 52.0622 12.2713 52.6719 12.2779C56.5668 12.3043 60.4649 12.2779 64.3631 12.301C64.5596 12.3142 64.9328 12.1065 64.9761 12.568Z" fill="#3761BC"/>
<path d="M142.36 109.544C142.36 108.951 142.36 108.358 142.36 107.764C142.36 107.343 142.536 107.158 142.956 107.168C143.469 107.168 143.979 107.168 144.492 107.168C144.602 107.168 144.732 107.191 144.752 107.326C144.775 107.517 144.612 107.524 144.485 107.534C144.285 107.534 144.086 107.534 143.886 107.534C142.976 107.534 142.576 108.153 142.933 108.987C143.073 109.317 143.363 109.225 143.616 109.277C143.949 109.35 144.549 109.06 144.565 109.528C144.565 109.904 143.972 109.755 143.656 109.739C142.933 109.703 142.883 110.111 142.883 110.658C142.883 111.206 142.979 111.572 143.649 111.499C143.938 111.479 144.227 111.479 144.515 111.499C144.625 111.499 144.749 111.532 144.762 111.667C144.775 111.802 144.669 111.865 144.552 111.868C143.929 111.868 143.306 111.868 142.686 111.868C142.393 111.868 142.37 111.598 142.353 111.374C142.353 110.757 142.353 110.141 142.353 109.525L142.36 109.544Z" fill="#2F2F2F"/>
<path d="M125.264 109.458C125.718 108.944 125.877 108.384 126.161 107.899C126.271 107.708 126.364 107.507 126.494 107.329C126.514 107.295 126.54 107.266 126.572 107.243C126.604 107.219 126.64 107.203 126.679 107.195C126.717 107.186 126.757 107.186 126.796 107.194C126.835 107.202 126.872 107.218 126.904 107.24C127.047 107.339 126.954 107.481 126.904 107.593C126.737 107.922 126.571 108.252 126.384 108.582C125.891 109.432 125.474 110.292 125.608 111.317C125.634 111.519 125.648 111.828 125.358 111.848C124.995 111.875 125.025 111.519 125.045 111.317C125.231 109.953 124.408 108.941 123.852 107.83C123.759 107.646 123.462 107.392 123.789 107.22C124.115 107.049 124.208 107.375 124.322 107.59C124.618 108.193 124.925 108.796 125.264 109.458Z" fill="#2F2F2F"/>
<path d="M43.6495 107.198C43.886 107.217 43.9826 107.402 44.0693 107.577C44.3225 108.068 44.5624 108.566 44.8189 109.047C44.8789 109.159 44.9655 109.317 45.0621 109.337C45.252 109.373 45.2854 109.162 45.352 109.034C45.5986 108.566 45.8284 108.091 46.075 107.623C46.1949 107.392 46.3349 107.059 46.6481 107.24C46.9046 107.389 46.628 107.629 46.5447 107.811C46.3925 108.151 46.219 108.481 46.0251 108.8C45.5369 109.515 45.3025 110.371 45.3587 111.232C45.382 111.466 45.4453 111.848 45.0621 111.848C44.729 111.848 44.7622 111.489 44.7922 111.272C44.9722 110.006 44.2325 109.05 43.7061 108.022C43.6128 107.847 43.5129 107.676 43.4363 107.494C43.3596 107.313 43.4396 107.204 43.6495 107.198Z" fill="#2F2F2F"/>
<path d="M67.4783 109.505C67.4783 108.931 67.4783 108.358 67.4783 107.784C67.4783 107.382 67.6182 107.161 68.0547 107.168C68.5911 107.168 69.1242 107.168 69.6573 107.168C69.8139 107.168 70.0104 107.168 70.027 107.369C70.0504 107.619 69.8238 107.622 69.6506 107.632C69.2941 107.632 68.9376 107.632 68.5811 107.632C67.9747 107.632 68.0147 108.064 68.0114 108.466C68.0081 108.868 68.0113 109.257 68.6044 109.287C68.9642 109.287 69.6039 109.07 69.6039 109.541C69.6039 109.91 68.9675 109.729 68.6044 109.749C68.1413 109.772 67.9747 109.979 67.988 110.408C67.988 110.76 67.988 111.113 67.988 111.463C67.988 111.644 67.9414 111.845 67.6981 111.818C67.5049 111.799 67.4849 111.614 67.4849 111.459C67.4849 110.8 67.4849 110.141 67.4849 109.482L67.4783 109.505Z" fill="#2F2F2F"/>
<path d="M153.318 109.36C153.318 109.841 153.341 110.326 153.318 110.807C153.285 111.354 153.524 111.545 154.061 111.532C154.341 111.532 154.871 111.371 154.861 111.7C154.861 112.106 154.327 111.908 154.034 111.915C152.792 111.941 152.792 111.915 152.792 110.662C152.792 109.696 152.792 108.73 152.792 107.768C152.792 107.564 152.732 107.254 153.051 107.26C153.371 107.267 153.305 107.573 153.308 107.778C153.308 108.305 153.308 108.833 153.308 109.36H153.318Z" fill="#2F2F2F"/>
<path d="M118.957 109.528C118.957 108.981 118.941 108.43 118.957 107.88C118.957 107.649 118.827 107.257 119.234 107.263C119.567 107.263 119.471 107.632 119.474 107.857C119.474 108.776 119.474 109.699 119.474 110.619C119.474 111.538 119.474 111.502 120.363 111.515C120.517 111.515 120.673 111.515 120.826 111.532C120.98 111.548 121.056 111.578 121.06 111.713C121.063 111.848 120.956 111.901 120.84 111.904C120.33 111.904 119.82 111.904 119.311 111.904C118.977 111.904 118.957 111.627 118.947 111.377C118.947 111.334 118.947 111.291 118.947 111.245L118.957 109.528Z" fill="#2F2F2F"/>
<path d="M148.37 109.373C148.37 109.831 148.397 110.296 148.37 110.754C148.334 111.311 148.54 111.558 149.13 111.532C149.406 111.532 149.92 111.357 149.923 111.716C149.926 112.076 149.416 111.911 149.143 111.914C147.731 111.914 147.854 112.03 147.847 110.649C147.847 109.706 147.847 108.763 147.847 107.82C147.847 107.603 147.754 107.254 148.12 107.263C148.42 107.263 148.36 107.593 148.364 107.794C148.364 108.318 148.364 108.846 148.364 109.373H148.37Z" fill="#2F2F2F"/>
<path d="M114.15 109.521C114.15 108.905 114.15 108.292 114.15 107.679C114.15 107.488 114.15 107.234 114.43 107.257C114.656 107.257 114.659 107.497 114.663 107.672C114.663 108.681 114.696 109.689 114.663 110.698C114.639 111.328 114.866 111.601 115.506 111.522C115.571 111.511 115.637 111.511 115.702 111.522C115.899 111.562 116.245 111.42 116.242 111.726C116.239 112.033 115.909 111.918 115.699 111.918C113.91 111.918 114.17 112.089 114.143 110.441C114.143 110.134 114.143 109.828 114.143 109.521H114.15Z" fill="#2F2F2F"/>
<path d="M103.988 109.548C103.988 108.911 103.988 108.275 103.988 107.639C103.988 107.468 103.988 107.253 104.241 107.253C104.494 107.253 104.498 107.468 104.498 107.642C104.498 108.915 104.498 110.184 104.498 111.456C104.498 111.631 104.498 111.845 104.241 111.845C103.985 111.845 103.994 111.624 103.991 111.456C103.985 110.82 103.988 110.184 103.988 109.548Z" fill="#2F2F2F"/>
<path d="M21.8831 109.495C21.8831 108.879 21.8831 108.266 21.8831 107.653C21.8831 107.481 21.883 107.264 22.1263 107.254C22.3695 107.244 22.3928 107.455 22.3928 107.63C22.3928 108.902 22.3928 110.174 22.3928 111.446C22.3928 111.621 22.3928 111.842 22.1429 111.845C21.8531 111.845 21.8831 111.588 21.8797 111.404C21.8764 110.767 21.8831 110.131 21.8831 109.495Z" fill="#2F2F2F"/>
<path d="M73.4788 109.574C73.4788 110.21 73.4788 110.846 73.4788 111.482C73.4788 111.657 73.4421 111.861 73.1989 111.845C72.9557 111.828 72.9757 111.65 72.9757 111.515C72.9757 110.22 72.9757 108.928 72.9757 107.632C72.9757 107.458 73.0024 107.243 73.2523 107.27C73.5021 107.296 73.4855 107.507 73.4855 107.682C73.4855 108.318 73.4855 108.954 73.4855 109.59L73.4788 109.574Z" fill="#2F2F2F"/>
<path d="M43.8227 48.0647L44.0559 47.7681C44.0626 47.9329 43.9493 48.0054 43.8227 48.0647Z" fill="#2E53A0"/>
<path d="M51.8689 75.2773L51.9689 75.3861C51.8989 75.3927 51.8589 75.3532 51.8689 75.2773Z" fill="#30427E"/>
<path d="M72.8458 75.2842L72.9557 75.3897C72.8891 75.393 72.8425 75.36 72.8458 75.2842Z" fill="#2F54A1"/>
<path d="M43.9526 75.3928L44.0559 75.2939C44.0626 75.3599 44.0259 75.3928 43.9526 75.3928Z" fill="#2F54A1"/>
<path d="M85.813 75.3927C85.8524 75.373 85.8849 75.342 85.9063 75.3037L85.813 75.3927Z" fill="#3761BC"/>
</g>
<defs>
<clipPath id="clip0_80_100">
<rect width="156" height="112" fill="white"/>
</clipPath>
</defs>
</svg>
