<svg width="100" height="72" viewBox="0 0 100 72" fill="none" xmlns="http://www.w3.org/2000/svg">
<g clip-path="url(#clip0_7_7)">
<path d="M62.3553 13.0952C62.3083 13.252 62.1758 13.2943 62.0755 13.3664C59.4072 15.313 56.7389 17.2596 54.0707 19.2062C49.4005 22.6121 44.7297 26.0165 40.0581 29.4196C32.5744 34.8695 25.0922 40.3202 17.6113 45.7716C17.3081 45.9835 17.197 45.939 17.0048 45.6529C14.1785 41.4743 11.3486 37.3014 8.51522 33.1341C8.31232 32.8353 8.33153 32.7273 8.65616 32.5556C10.08 31.8055 11.4939 31.0356 12.8978 30.246C13.2288 30.0595 13.3634 30.0616 13.5385 30.4409C15.057 33.8313 16.6054 37.2068 18.1324 40.5928C18.2734 40.9086 18.3653 40.9255 18.628 40.7094C24.3888 35.9672 30.1553 31.2306 35.9275 26.4997C43.2987 20.4437 50.6649 14.3856 58.0261 8.32538C58.3123 8.09018 58.4276 8.11349 58.6412 8.39531C59.8137 9.89553 61.0097 11.3788 62.1951 12.8684C62.2442 12.9447 62.3019 13.0231 62.3553 13.0952Z" fill="#D90000"/>
<path d="M67.0668 30.6168C69.9671 30.6168 72.8675 30.6168 75.7657 30.6168C76.3711 30.6312 76.9633 30.4389 77.443 30.0721C77.9227 29.7053 78.261 29.1862 78.4012 28.6017C78.4788 28.2436 78.4775 27.8732 78.3974 27.5157C78.3174 27.1582 78.1605 26.8221 77.9374 26.5304C77.7143 26.2386 77.4303 25.9981 77.1049 25.8253C76.7795 25.6525 76.4203 25.5515 76.0519 25.5292C75.8533 25.5165 75.6525 25.5292 75.4517 25.5292C70.4512 25.5292 65.4514 25.5292 60.4524 25.5292C59.9772 25.5493 59.5063 25.433 59.0961 25.1944C58.6859 24.9557 58.3537 24.6048 58.1393 24.1836C57.9079 23.7873 57.7946 23.334 57.8128 22.8763C57.8309 22.4187 57.9797 21.9755 58.2418 21.5985C58.4543 21.2407 58.7581 20.9448 59.1225 20.7405C59.487 20.5363 59.8992 20.431 60.3178 20.4352C65.5739 20.4246 70.8321 20.3843 76.0882 20.4479C80.0094 20.4945 83.3348 23.6942 83.6167 27.5337C83.7481 29.4274 83.1677 31.3023 81.9876 32.7964C80.8075 34.2904 79.1113 35.2978 77.2265 35.6239C76.7476 35.7054 76.2622 35.7437 75.7764 35.7383C71.6779 35.7383 67.5772 35.7383 63.4766 35.7277C63.0943 35.7277 62.9747 35.8146 62.9768 36.2129C62.9939 39.4295 62.9939 42.6468 62.9768 45.8648C62.9768 47.3481 61.8812 48.469 60.4566 48.4902C60.1087 48.4989 59.7626 48.4373 59.4395 48.309C59.1164 48.1807 58.8229 47.9885 58.5771 47.744C58.3313 47.4996 58.1383 47.208 58.0098 46.8871C57.8813 46.5662 57.82 46.2227 57.8297 45.8775C57.8297 42.3459 57.8297 38.8143 57.8297 35.2827C57.8297 33.8927 57.8467 32.5048 57.8297 31.1169C57.8297 30.7185 57.9087 30.5935 58.3359 30.5956C61.2469 30.6253 64.1536 30.6168 67.0668 30.6168Z" fill="#DA0000"/>
<path d="M28.0915 30.8986C27.0428 31.7695 26.0006 32.6446 24.9498 33.5113C23.4904 34.7106 22.0288 35.9064 20.5651 37.0987C20.4866 37.1579 20.4046 37.2124 20.3195 37.2618C19.9693 37.1453 20.0269 36.838 20.0269 36.5859C20.0269 30.4367 20.0269 24.2882 20.0269 18.1404C20.0269 17.4877 20.0782 17.4369 20.7339 17.4369C22.9614 17.4369 25.189 17.4369 27.4166 17.4369C27.7021 17.4289 27.9854 17.4885 28.2431 17.6106C28.2431 18.543 28.2581 19.4753 28.2602 20.4098C28.2602 23.6589 28.2602 26.9079 28.2602 30.157C28.2602 30.3413 28.2495 30.5236 28.2431 30.7079L28.0915 30.8986Z" fill="#284790"/>
<path d="M41.5446 48.4669H33.3967C33.3967 44.5277 33.3967 40.5886 33.3967 36.6495C33.3821 36.4527 33.4232 36.2559 33.5153 36.0811C33.6073 35.9062 33.7468 35.7604 33.9179 35.6599C34.4753 35.2933 35.0135 34.895 35.5538 34.503C37.3863 33.1765 39.218 31.8507 41.0491 30.5257C41.1687 30.4388 41.2755 30.2417 41.4378 30.3138C41.6001 30.3858 41.5275 30.6168 41.5489 30.7778C41.5521 30.8343 41.5521 30.8909 41.5489 30.9474L41.5446 48.4669Z" fill="#28478F"/>
<path d="M41.6514 8.07959C41.662 8.21944 41.6812 8.35929 41.6812 8.50338C41.6812 12.124 41.6812 15.7446 41.6812 19.3652C41.6948 19.4896 41.6765 19.6155 41.6279 19.731C41.5794 19.8466 41.5023 19.9482 41.4036 20.0263C39.9321 21.2086 38.4712 22.408 37.0082 23.6031C36.9244 23.489 36.8346 23.3793 36.7391 23.2746C35.7538 22.2928 34.7671 21.3139 33.779 20.3378C33.6935 20.253 33.6188 20.0898 33.4778 20.1513C33.3369 20.2127 33.3967 20.378 33.3967 20.4967C33.3967 22.5182 33.3967 24.5389 33.3967 26.559C33.2878 26.6501 33.2408 26.5823 33.2365 26.4848C33.2237 26.3005 33.2365 26.1161 33.2365 25.9339C33.2365 24.0805 33.2365 22.2264 33.2365 20.3717C33.2365 20.217 33.2536 20.0623 33.2643 19.9076C33.4287 19.6957 33.3946 19.452 33.3946 19.2147V8.76401C33.3946 8.11561 33.4202 8.09231 34.0695 8.09231L41.6514 8.07959Z" fill="#2E53A0"/>
<path d="M46.696 33.2549V26.3662C47.5916 25.7135 48.4864 25.0609 49.3806 24.4083L54.4936 20.6959C54.5833 20.6302 54.6645 20.5242 54.7926 20.5878C54.9208 20.6514 54.9015 20.7764 54.908 20.8887C54.9144 21.001 54.908 21.1154 54.908 21.2277C54.908 27.8431 54.908 34.4592 54.908 41.076C54.7606 40.9446 54.6047 40.8217 54.4637 40.6818C52.0567 38.3086 49.6839 35.8994 47.2214 33.5812C47.0904 33.4145 46.9044 33.299 46.696 33.2549Z" fill="#2F54A1"/>
<path d="M54.9208 8.90808C53.7055 9.91458 52.4946 10.9232 51.2751 11.9276C49.8812 13.0761 48.4836 14.221 47.0826 15.3624C46.9779 15.4472 46.8947 15.5743 46.7366 15.5743C46.6512 15.4874 46.6854 15.3836 46.6854 15.2904C46.6854 10.3461 46.6854 5.40191 46.6854 0.457684C46.6854 0.387759 46.6853 0.315714 46.7003 0.245789H54.1989C54.9101 0.245789 54.9251 0.262741 54.9272 0.951401C54.9215 3.60857 54.9194 6.2608 54.9208 8.90808Z" fill="#2F54A1"/>
<path d="M46.6961 33.2549C46.9075 33.2971 47.0969 33.4128 47.23 33.5812C49.6925 35.8993 52.0653 38.3086 54.4723 40.6818C54.6133 40.8217 54.7692 40.9446 54.9166 41.0759L55.0746 41.2455V48.4033C55.0609 48.4279 55.0401 48.4478 55.0148 48.4605L48.8211 48.4775C48.1398 48.4775 47.4564 48.4775 46.7729 48.4647L46.7024 48.3969C46.7024 47.8736 46.6875 47.3502 46.6875 46.8289C46.6875 42.4865 46.6875 38.1454 46.6875 33.8058C46.6811 33.6215 46.6897 33.4371 46.6961 33.2549Z" fill="#284790"/>
<path d="M28.1747 48.4669H20.0269C20.0269 47.8015 20.0504 47.1362 20.0269 46.4708C20.0106 46.2602 20.0542 46.0492 20.1528 45.8619C20.2513 45.6746 20.4008 45.5185 20.5843 45.4113C21.9384 44.4451 23.2668 43.4449 24.6102 42.466C25.6076 41.735 26.6135 41.0166 27.6152 40.2898C27.6995 40.2115 27.8031 40.1565 27.9155 40.1305C28.028 40.1044 28.1454 40.1082 28.2559 40.1415V48.4054L28.1747 48.4669Z" fill="#284790"/>
<path d="M40.1179 60.831C40.1179 59.4855 40.1179 58.1399 40.1179 56.7944C40.1179 56.2498 40.1521 56.2244 40.7074 56.2244C41.7069 56.2244 42.7064 56.2244 43.6974 56.2244C44.2277 56.2166 44.754 56.3169 45.2437 56.5189C46.3351 56.9914 46.9245 57.8094 46.9309 58.9981C46.9373 60.1868 46.3884 61.0704 45.2672 61.5408C44.8934 61.6955 44.9212 61.8417 45.0984 62.1278C45.6537 63.0347 46.192 63.9522 46.7323 64.8824C46.8156 65.0244 47.0014 65.177 46.9159 65.3317C46.8305 65.4863 46.5807 65.4164 46.4034 65.4207C46.0318 65.4334 45.6602 65.4207 45.2907 65.4207C45.1639 65.434 45.0361 65.4064 44.9264 65.3419C44.8167 65.2773 44.731 65.1794 44.682 65.0626C44.1502 64.1069 43.5928 63.1555 43.061 62.2104C43.0117 62.0945 42.9277 61.9963 42.8203 61.9292C42.713 61.8622 42.5875 61.8294 42.4608 61.8354C42.1148 61.8354 41.9717 61.9434 41.9781 62.2994C41.9952 63.164 41.9653 64.0285 41.9888 64.893C42.0016 65.3168 41.8414 65.4249 41.4399 65.4249C40.1051 65.4249 40.1051 65.4249 40.1051 64.1111V60.831H40.1179ZM41.9974 59.1062V60.0809C41.9974 60.2652 42.0315 60.4369 42.2622 60.439C42.8581 60.439 43.4603 60.5132 44.0498 60.386C44.6905 60.2483 45.0429 59.7503 45.0344 59.0786C45.0259 58.4069 44.6799 57.9471 44.0092 57.8072C43.4454 57.6992 42.873 57.767 42.3006 57.7585C42.0871 57.7585 41.9952 57.8793 41.9952 58.0806C41.9952 58.426 41.9974 58.7671 41.9974 59.1062Z" fill="#3A3A3A"/>
<path d="M3.20654e-06 60.8055C3.20654e-06 59.5342 3.20654e-06 58.2628 3.20654e-06 56.9914C3.20654e-06 56.2328 -9.68575e-07 56.2307 0.743239 56.2307C1.68724 56.2307 2.6291 56.2307 3.57097 56.2307C4.12985 56.2224 4.68407 56.333 5.1963 56.5549C6.28126 57.0465 6.83866 57.8856 6.82371 59.0701C6.80876 60.2546 6.26843 61.081 5.18347 61.5302C4.79476 61.6913 4.80755 61.8332 4.99977 62.1426C5.56574 63.0601 6.10823 63.9925 6.65711 64.9184C6.93049 65.3783 6.91769 65.4143 6.40511 65.4016C5.89253 65.3888 5.25181 65.5859 4.80757 65.3147C4.36334 65.0435 4.24162 64.4523 3.97679 64.0009C3.61585 63.3907 3.2506 62.7804 2.92597 62.1511C2.73161 61.7781 2.42406 61.8205 2.12079 61.8587C1.77693 61.9032 1.88375 62.1998 1.88161 62.4054C1.87093 63.2254 1.86025 64.0475 1.88161 64.8676C1.89229 65.2638 1.77482 65.4524 1.34981 65.41C1.10722 65.3973 0.864081 65.3973 0.621487 65.41C-1.55829e-05 65.41 -0.00213671 65.41 -0.00427246 64.8083V60.8055H3.20654e-06ZM1.87947 59.1104V60.0851C1.87947 60.2737 1.93074 60.4326 2.15713 60.4326C2.74019 60.4326 3.32751 60.5004 3.90416 60.3839C4.55983 60.2504 4.93145 59.7482 4.9165 59.0595C4.90155 58.3709 4.55554 57.9322 3.88064 57.8051C3.3168 57.7013 2.74442 57.7648 2.17204 57.7606C1.95847 57.7606 1.87733 57.8962 1.87733 58.0933C1.87306 58.4408 1.87306 58.7798 1.87306 59.1189L1.87947 59.1104Z" fill="#3A3A3A"/>
<path d="M66.4089 60.8522C66.4089 62.1977 66.3961 63.5432 66.4089 64.8782C66.4089 65.302 66.268 65.4397 65.8622 65.4037C65.5779 65.3804 65.2922 65.3804 65.0079 65.4037C64.6235 65.4355 64.5124 65.2638 64.5188 64.9057C64.5359 63.9713 64.5188 63.0368 64.5188 62.1023C64.5188 61.4984 64.5188 61.4963 63.8781 61.4942H61.2041C60.6104 61.4942 60.5976 61.5069 60.5954 62.079C60.5954 63.0135 60.5826 63.9501 60.5954 64.8845C60.5954 65.2617 60.4801 65.4333 60.0786 65.4016C59.7507 65.3825 59.4219 65.3825 59.094 65.4016C58.8163 65.4016 58.7095 65.2829 58.7117 65.0201C58.7117 64.6811 58.7117 64.34 58.7117 64.0009C58.7117 61.6065 58.7117 59.2128 58.7117 56.8198C58.7117 56.2138 58.7117 56.2138 59.3375 56.2116C59.5788 56.2116 59.8244 56.2307 60.0636 56.2116C60.4908 56.1714 60.6061 56.3621 60.5954 56.7562C60.5762 57.6483 60.5954 58.5404 60.5954 59.4325C60.5954 59.8266 60.7043 59.9919 61.1294 59.9813C62.099 59.958 63.0708 59.9622 64.0404 59.9813C64.4078 59.9813 64.5508 59.8626 64.5444 59.4897C64.5273 58.5679 64.5444 57.6462 64.5444 56.735C64.5444 56.3515 64.6619 56.1883 65.0613 56.2222C65.3606 56.2445 65.6611 56.2445 65.9604 56.2222C66.3128 56.1989 66.4346 56.3409 66.4303 56.6884C66.4004 58.0742 66.4089 59.4642 66.4089 60.8522Z" fill="#3A3A3A"/>
<path d="M37.792 65.4185C36.7242 65.4016 36.9549 65.5605 36.5896 64.5709C36.2244 63.5814 36.4423 63.7107 35.3509 63.6979C34.5799 63.6979 33.8089 63.6979 33.0379 63.6979C32.9749 63.6864 32.9103 63.6877 32.8478 63.7015C32.7853 63.7154 32.7264 63.7416 32.6743 63.7786C32.6223 63.8155 32.5783 63.8626 32.545 63.9168C32.5117 63.971 32.4897 64.0313 32.4805 64.0942C32.4707 64.1359 32.4564 64.1764 32.4378 64.215C32.2712 64.6027 32.2989 65.1727 31.9401 65.3528C31.4702 65.5859 30.8722 65.4185 30.3362 65.427C30.0927 65.427 30.1012 65.2723 30.161 65.1049C30.2892 64.7447 30.4216 64.3845 30.5519 64.0243C31.4339 61.5853 32.3245 59.1507 33.1938 56.7033C33.3198 56.3494 33.4971 56.2074 33.873 56.2329C34.2997 56.2603 34.7277 56.2603 35.1544 56.2329C35.4855 56.2117 35.6008 56.3833 35.6969 56.6566C36.4359 58.7092 37.1784 60.7618 37.9245 62.8143C38.1765 63.5072 38.4307 64.2001 38.6763 64.8951C38.8535 65.3931 38.8258 65.4291 38.3047 65.4376C38.1359 65.4185 37.9672 65.4185 37.792 65.4185ZM34.5116 58.5531H34.3898C34.0025 59.662 33.6174 60.7702 33.2344 61.8778C33.1639 62.0897 33.2536 62.1681 33.448 62.1681H35.4193C35.6115 62.1681 35.7268 62.0875 35.6542 61.8778C35.2797 60.7717 34.8988 59.6634 34.5116 58.5531Z" fill="#3A3A3A"/>
<path d="M56.0784 59.0977C55.8648 59.0977 55.6512 59.0977 55.4376 59.0977C55.3312 59.112 55.2228 59.0932 55.1276 59.0439C55.0323 58.9946 54.9548 58.9171 54.9058 58.8222C54.1711 57.5212 51.9158 57.4746 50.8906 58.5743C49.8057 59.7312 49.8484 61.9646 50.959 63.0961C51.9115 64.0624 54.0793 64.1408 54.908 62.7698C54.9542 62.6823 55.0255 62.6104 55.113 62.5633C55.2004 62.5161 55.3001 62.4958 55.3992 62.505C55.8563 62.5156 56.3133 62.5177 56.7682 62.505C57.1398 62.505 57.1826 62.6575 57.0459 62.9499C56.3603 64.4332 55.1643 65.2215 53.5646 65.444C51.4673 65.7364 49.5067 64.7426 48.6417 62.9584C48.1978 62.0309 48.055 60.9896 48.2328 59.9782C48.4107 58.9667 48.9005 58.035 49.6348 57.3114C51.8068 55.2603 55.711 55.8917 56.9732 58.5001C57.2317 59.0362 57.1868 59.0913 56.5952 59.0956L56.0784 59.0977Z" fill="#3A3A3A"/>
<path d="M20.8406 58.7417C20.6975 58.7417 20.5545 58.7417 20.4135 58.7417C20.2688 58.7733 20.1173 58.749 19.99 58.6739C19.8627 58.5987 19.769 58.4782 19.7279 58.337C19.4247 57.6356 18.2607 57.4046 17.6498 57.8793C17.5421 57.9666 17.454 58.0753 17.391 58.1984C17.3281 58.3215 17.2917 58.4562 17.2843 58.594C17.2768 58.7319 17.2985 58.8697 17.3478 58.9987C17.3972 59.1278 17.4731 59.2452 17.5708 59.3435C17.8537 59.5849 18.1882 59.7595 18.549 59.8541C19.1897 60.066 19.8582 60.2525 20.4925 60.5152C22.5535 61.3628 22.3186 63.842 20.9816 64.8294C19.7001 65.7787 17.3871 65.7152 16.1697 64.6684C15.7211 64.2887 15.4235 63.7628 15.3304 63.1851C15.2834 62.9033 15.3667 62.7465 15.6828 62.7613C15.9391 62.7613 16.1975 62.774 16.4538 62.7613C16.9279 62.7317 17.2696 62.7613 17.4982 63.3356C17.8185 64.1493 19.3606 64.2001 19.8731 63.4797C20.0245 63.2537 20.0828 62.9788 20.0359 62.7115C19.989 62.4442 19.8406 62.2049 19.6211 62.043C19.2857 61.8253 18.914 61.6682 18.5233 61.579C17.918 61.4105 17.3233 61.2068 16.7422 60.9687C14.8093 60.1444 15.0335 57.6631 16.3022 56.7562C17.5174 55.8959 19.6873 55.8768 20.8769 56.7562C21.3837 57.1365 21.7301 57.6901 21.8487 58.3094C21.9235 58.64 21.806 58.7565 21.4856 58.7332C21.2699 58.7332 21.0542 58.7417 20.8406 58.7417Z" fill="#3A3A3A"/>
<path d="M23.5723 60.7971C23.5723 59.4367 23.583 58.0763 23.5723 56.7181C23.5723 56.3303 23.7026 56.2032 24.0955 56.2095C25.5379 56.2293 26.9802 56.2293 28.4226 56.2095C28.8177 56.2095 28.9864 56.3091 28.9736 56.7329C28.9437 57.875 29.0825 57.7246 27.9655 57.7331C27.2671 57.7331 26.5666 57.7437 25.8661 57.7331C25.5735 57.7331 25.4517 57.8454 25.456 58.1336C25.456 58.6294 25.4667 59.1252 25.456 59.6168C25.456 59.9092 25.5842 60.0194 25.8704 60.0173C26.6136 60.0173 27.3654 60.03 28.0979 60.0173C28.476 60.0173 28.5977 60.155 28.5913 60.5174C28.5742 61.6553 28.666 61.4709 27.643 61.4857C27.0421 61.4942 26.442 61.4942 25.8426 61.4857C25.5671 61.4857 25.4539 61.5959 25.4581 61.8629C25.4581 62.4011 25.4581 62.9393 25.4581 63.4776C25.4581 63.7954 25.5991 63.9014 25.9024 63.9014C26.7567 63.9014 27.611 63.9014 28.4653 63.9014C28.8305 63.9014 28.9757 64.0137 28.9693 64.3908C28.9437 65.6008 29.0761 65.4206 27.9591 65.4291C26.6776 65.4291 25.3962 65.4164 24.1041 65.4291C23.6769 65.4291 23.5637 65.285 23.568 64.8888C23.583 63.5115 23.5723 62.1575 23.5723 60.7971Z" fill="#3A3A3A"/>
<path d="M8.49384 60.7568C8.49384 59.4113 8.49384 58.0657 8.49384 56.7308C8.49384 56.3557 8.59634 56.2053 9.00426 56.2116C10.4608 56.2328 11.9175 56.2328 13.374 56.2116C13.767 56.2116 13.9016 56.3367 13.893 56.7244C13.8674 57.8793 14.0041 57.7246 12.8978 57.7352C12.2122 57.7352 11.5266 57.7521 10.841 57.7352C10.4801 57.7352 10.3605 57.8708 10.3733 58.2119C10.3904 58.6506 10.3925 59.0913 10.3733 59.5278C10.3562 59.8902 10.4887 60.0406 10.8645 60.03C11.5928 60.0109 12.3211 60.03 13.0494 60.03C13.3783 60.03 13.5128 60.1423 13.5107 60.475C13.4979 61.6955 13.5961 61.4794 12.5304 61.4963C11.9601 61.4963 11.3878 61.509 10.8218 61.4963C10.5164 61.4963 10.3733 61.5896 10.3797 61.9074C10.3925 62.4308 10.3904 62.9669 10.3797 63.4797C10.3797 63.7869 10.5015 63.9035 10.8069 63.9035C11.6612 63.9035 12.5155 63.9162 13.3698 63.9035C13.767 63.9035 13.893 64.0412 13.8845 64.4247C13.8588 65.588 13.9891 65.4249 12.885 65.4312C11.6035 65.4312 10.322 65.4312 9.02992 65.4312C8.62413 65.4312 8.47888 65.3126 8.48315 64.9015C8.49383 63.5115 8.49384 62.1405 8.49384 60.7568Z" fill="#3A3A3A"/>
<path d="M79.9453 58.3921C79.8535 58.5891 79.7702 58.7586 79.6912 58.9345C78.7899 60.9376 77.8878 62.9407 76.9851 64.9439C76.8784 65.1812 76.8292 65.427 76.4427 65.427C76.0561 65.427 76.0006 65.2045 75.8917 64.9608C74.9818 62.945 74.0713 60.9299 73.16 58.9154C73.0917 58.7608 73.0169 58.6103 72.9229 58.409C72.8432 58.5507 72.8153 58.7154 72.8439 58.8752C72.8439 60.9157 72.8311 62.9563 72.8439 64.9947C72.8439 65.3931 72.6795 65.4185 72.3634 65.4185C72.0473 65.4185 71.8807 65.3804 71.885 64.9947C71.9021 62.274 71.885 59.5532 71.8999 56.8346C71.8999 56.6651 71.7739 56.4108 72.0772 56.3409C72.5043 56.2328 72.893 56.3409 73.0255 56.6418C73.5807 57.8694 74.1346 59.097 74.6871 60.3245L76.3701 64.0645C76.5836 63.9501 76.605 63.7572 76.6776 63.6004C77.7056 61.3261 78.73 59.0518 79.7509 56.7774C79.8438 56.5876 80.0047 56.4389 80.2022 56.3605C80.3997 56.2821 80.6196 56.2797 80.8188 56.3536C81.0324 56.4384 80.9448 56.6185 80.9448 56.7562C80.9448 58.9543 80.9448 61.1502 80.9448 63.3441C80.9448 63.9119 80.9171 64.4798 80.9555 65.0392C80.9833 65.463 80.7419 65.4185 80.4771 65.4164C80.2123 65.4143 79.9902 65.4672 79.9966 65.0456C80.0179 62.9499 80.0072 60.8522 79.9966 58.7565C80.0162 58.6958 80.0218 58.6316 80.0129 58.5685C80.004 58.5054 79.9809 58.4451 79.9453 58.3921Z" fill="#787878"/>
<path d="M76.9339 45.2546C75.7948 43.9733 74.6829 42.6673 73.5979 41.3366C74.638 40.9361 75.55 40.2941 76.5239 39.7707C76.8976 39.5588 77.2543 39.3194 77.7135 39.3766C77.9655 39.6648 78.2218 39.9487 78.4695 40.2411C79.2925 41.2201 80.1126 42.199 80.9299 43.178C80.6714 43.1933 80.4197 43.2657 80.1931 43.3899L76.9339 45.2546Z" fill="#2C327D"/>
<path d="M88.9454 59.549C88.9454 59.2142 88.9582 58.8794 88.9454 58.5446C88.9326 58.2988 89.0329 58.2374 89.2636 58.2289C89.8915 58.2077 89.8916 58.1971 89.8916 58.8307C89.8916 60.884 89.8787 62.9351 89.8916 64.9884C89.8916 65.374 89.7484 65.427 89.4216 65.4122C89.0949 65.3973 88.8877 65.4122 88.9347 65.0032C88.9528 64.6877 88.9528 64.3715 88.9347 64.056C88.813 64.0348 88.7938 64.0963 88.7617 64.1387C87.8626 65.3232 86.5854 65.7639 85.131 65.3931C84.4863 65.2179 83.9089 64.856 83.4725 64.3536C83.0362 63.8513 82.7607 63.2312 82.6813 62.5728C82.513 61.6599 82.644 60.7175 83.055 59.8838C84.1742 57.7204 87.2987 57.4746 88.7425 59.4304L88.8471 59.5617L88.9454 59.549ZM88.9454 61.7845C88.9516 61.4985 88.9164 61.213 88.8407 60.9369C88.7205 60.4233 88.4461 59.958 88.0537 59.6024C87.6613 59.2468 87.1694 59.0176 86.643 58.9451C85.5239 58.7904 84.4518 59.2714 83.9669 60.2165C83.6864 60.7298 83.548 61.3076 83.5656 61.8912C83.5832 62.4748 83.7564 63.0433 84.0674 63.539C84.2354 63.8207 84.4629 64.063 84.7342 64.2491C85.0056 64.4353 85.3143 64.561 85.6392 64.6176C87.4589 65.0074 88.939 63.7509 88.9411 61.7845H88.9454Z" fill="#787878"/>
<path d="M77.7135 39.3766C77.2543 39.3193 76.8976 39.5694 76.5239 39.7707C75.5499 40.2941 74.638 40.9361 73.5979 41.3366C72.3663 39.9466 71.1602 38.5339 69.9799 37.0987C71.7632 37.0987 73.5466 37.0987 75.3193 37.0817C75.4546 37.0755 75.5894 37.1012 75.7127 37.1569C75.836 37.2125 75.9442 37.2964 76.0283 37.4017C76.5922 38.0607 77.1539 38.7197 77.7135 39.3766Z" fill="#30427E"/>
<path d="M76.9339 45.2545L80.1931 43.3814C80.4202 43.2599 80.6721 43.1911 80.9299 43.1801C81.9166 44.1972 82.7816 45.3181 83.7063 46.3903C83.9456 46.6679 84.2339 46.9116 84.3642 47.2675L78.8539 47.293C78.7831 47.2938 78.7131 47.2777 78.6499 47.246C78.5867 47.2143 78.5321 47.1679 78.4909 47.1107C77.9719 46.4899 77.4507 45.8733 76.9339 45.2545Z" fill="#29237E"/>
<path d="M97.0292 61.4836C97.0292 60.8607 97.0292 60.2377 97.0292 59.6147C97.0292 58.9049 97.0548 59.0087 96.4375 59.0278C96.115 59.0278 96.0382 58.9324 96.0211 58.6273C95.9997 58.2416 96.2005 58.2035 96.4888 58.2353C96.916 58.2967 97.0868 58.1399 97.0356 57.7013C96.9993 57.394 97.0356 57.0783 97.0249 56.769C97.0014 56.3812 97.2619 56.4278 97.5054 56.4236C97.7489 56.4193 98.0009 56.4109 97.986 56.7796C97.971 57.1482 97.986 57.4894 97.986 57.839C97.971 58.1272 98.0714 58.2501 98.3768 58.2353C98.804 58.2162 99.2311 58.2353 99.6583 58.2353C100.013 58.2353 99.9765 58.4472 99.9871 58.6887C99.9978 58.9303 99.9017 59.0362 99.639 59.0278C99.1991 59.0108 98.7548 59.0278 98.3127 59.0278C98.0757 59.0278 97.9838 59.1019 97.9838 59.3414C97.9838 60.7568 97.9838 62.1744 97.9988 63.5793C98.0137 64.3421 98.285 64.5752 99.0667 64.6133C99.2098 64.6133 99.3529 64.6133 99.4938 64.6133C99.9957 64.6133 100.058 64.696 99.9935 65.1897C99.9743 65.3507 99.9103 65.4143 99.7544 65.4016C99.3124 65.4211 98.8696 65.4055 98.4302 65.355C97.593 65.2024 97.1936 64.7765 97.0825 63.9374C97.0666 63.8398 97.0559 63.7415 97.0505 63.6428C97.0505 62.9203 97.0505 62.1977 97.0505 61.4773L97.0292 61.4836Z" fill="#787878"/>
<path d="M33.4073 26.5547C33.4073 24.5333 33.4073 22.5125 33.4073 20.4924C33.4073 20.3738 33.3518 20.2042 33.4885 20.147C33.6252 20.0898 33.7021 20.2487 33.7896 20.3335C34.7792 21.311 35.7659 22.29 36.7498 23.2704C36.8453 23.3751 36.9351 23.4847 37.0189 23.5988C35.8314 24.6159 34.6311 25.597 33.4073 26.5547Z" fill="#28478F"/>
<path d="M92.9841 59.2884C93.1886 58.9608 93.4676 58.6853 93.7988 58.4841C94.13 58.2828 94.5042 58.1613 94.8913 58.1293C95.0621 58.1124 95.3334 57.9365 95.3804 58.3158C95.4551 58.9176 95.3996 59.0362 94.9874 59.0723C93.5778 59.1909 92.9413 59.8393 92.9093 61.259C92.8815 62.5029 92.8837 63.7509 92.9093 64.9947C92.9093 65.391 92.747 65.4185 92.4309 65.4185C92.1148 65.4185 91.9461 65.3846 91.9503 64.9947C91.9688 62.8758 91.9688 60.7526 91.9503 58.6252C91.9503 58.1802 92.2002 58.2522 92.4672 58.231C92.7769 58.2077 92.9541 58.2798 92.9093 58.6421C92.8698 58.8602 92.8958 59.0849 92.9841 59.2884Z" fill="#787878"/>
<path d="M41.5446 48.4669V30.9495C41.5478 30.893 41.5478 30.8364 41.5446 30.78C41.5232 30.6189 41.6172 30.4007 41.4335 30.3159C41.2498 30.2311 41.1644 30.4367 41.0448 30.5278C39.2109 31.85 37.3791 33.1758 35.5495 34.5051C35.0092 34.8971 34.4816 35.2954 33.9135 35.662C33.7424 35.7625 33.603 35.9083 33.5109 36.0832C33.4189 36.258 33.3778 36.4549 33.3924 36.6516C33.4031 40.5907 33.3924 44.5299 33.3924 48.469H33.3497H33.3091L33.245 48.3991C33.245 44.318 33.2401 40.2376 33.2301 36.1579C33.2247 36.0748 33.2416 35.9918 33.2792 35.9173C33.3167 35.8429 33.3735 35.7796 33.4437 35.7341L41.3459 29.9811C41.4228 29.9239 41.5018 29.8201 41.6044 29.8624C41.7069 29.9048 41.6834 30.0595 41.6834 30.1655C41.6834 36.1579 41.6834 42.1503 41.6834 48.1427C41.6983 48.255 41.7838 48.4436 41.5446 48.4669Z" fill="#2F54A1"/>
<path d="M28.241 17.6064C27.9832 17.4843 27.7 17.4247 27.4145 17.4327C25.1869 17.4327 22.9593 17.4327 20.7317 17.4327C20.076 17.4327 20.0269 17.4835 20.0248 18.1362C20.0248 24.2854 20.0248 30.4339 20.0248 36.5817C20.0248 36.8423 19.9671 37.1411 20.3174 37.2576C20.2117 37.3931 20.0767 37.5031 19.9222 37.5797C19.8005 37.461 19.8603 37.3127 19.8603 37.1813C19.8603 30.6281 19.856 24.0735 19.8475 17.5174C19.8475 17.1551 19.9735 17.0936 20.2874 17.0936C22.7841 17.1042 25.283 17.1085 27.7797 17.0936C28.1897 17.1063 28.3285 17.2208 28.241 17.6064Z" fill="#2E53A0"/>
<path d="M84.3599 47.2676C84.2296 46.9116 83.9327 46.6679 83.7021 46.3903C82.7816 45.3181 81.9166 44.1972 80.9256 43.1801C80.1055 42.1997 79.2854 41.22 78.4653 40.2411C78.2175 39.9487 77.9612 39.6647 77.7092 39.3766C77.1496 38.7176 76.5879 38.0607 76.0326 37.3975C75.9485 37.2922 75.8403 37.2083 75.717 37.1526C75.5937 37.097 75.4588 37.0712 75.3235 37.0775C73.5423 37.0775 71.759 37.0902 69.9842 37.0944C69.9116 37.033 69.824 36.9821 69.8155 36.8698C69.9009 36.7893 70.0077 36.8232 70.1016 36.8232C71.9555 36.8232 73.8093 36.8232 75.6546 36.8232C75.7382 36.8155 75.8225 36.8283 75.8999 36.8604C75.9774 36.8926 76.0457 36.9431 76.0988 37.0076C78.9622 40.3838 81.8298 43.7579 84.7016 47.1298C84.7262 47.1658 84.7469 47.2041 84.7636 47.2442C84.6312 47.3417 84.4923 47.2633 84.3599 47.2676Z" fill="#3761BC"/>
<path d="M55.0746 41.2455L54.9165 41.076C54.9165 34.4606 54.9165 27.8445 54.9165 21.2277C54.9165 21.1154 54.9165 21.001 54.9165 20.8887C54.9165 20.7764 54.9165 20.6471 54.8012 20.5878C54.6858 20.5285 54.5876 20.6302 54.5021 20.6959L49.3892 24.4083C48.4921 25.0595 47.5973 25.7121 46.7045 26.3662C46.6837 26.2908 46.6898 26.2106 46.7217 26.1392C46.7536 26.0678 46.8094 26.0095 46.8797 25.9742L54.8909 20.1428C54.9332 20.1175 54.9775 20.0956 55.0233 20.0771C55.1237 20.1619 55.0873 20.253 55.0873 20.3314C55.0873 27.2448 55.0873 34.1597 55.0873 41.076C55.0852 41.1332 55.0788 41.1883 55.0746 41.2455Z" fill="#3761BC"/>
<path d="M86.6345 71.2795C86.8332 70.6163 87.0296 69.951 87.2304 69.2898C87.2773 69.133 87.2859 68.9275 87.5144 68.919C87.743 68.9105 87.7835 69.1309 87.8348 69.3026C88.0181 69.9809 88.245 70.6469 88.5139 71.2965C88.6805 70.6756 88.8386 70.0548 89.018 69.4403C89.0757 69.2432 89.05 68.8618 89.3426 68.9444C89.6352 69.0271 89.3854 69.3365 89.3426 69.525C89.1696 70.2116 88.9646 70.8896 88.766 71.5698C88.7211 71.7288 88.7019 71.9279 88.4691 71.9301C88.2363 71.9322 88.2171 71.733 88.168 71.5762C87.9803 70.9094 87.7491 70.2554 87.476 69.6183L87.0275 71.0443C86.9549 71.2753 86.8844 71.5063 86.8139 71.7351C86.8025 71.7914 86.7718 71.842 86.727 71.8783C86.6822 71.9147 86.6262 71.9344 86.5683 71.9343C86.5091 71.9346 86.4518 71.9132 86.4076 71.874C86.3634 71.8349 86.3354 71.7808 86.3291 71.7224C86.087 70.8748 85.8493 70.0272 85.6158 69.1797C85.588 69.0737 85.5496 68.9381 85.7183 68.9084C85.887 68.8788 85.919 68.9974 85.9489 69.1097C86.0685 69.5335 86.1796 69.9573 86.2949 70.3811C86.3739 70.6778 86.4551 70.9744 86.5362 71.2711L86.6345 71.2795Z" fill="#2F2F2F"/>
<path d="M1.42026 69.9192C1.42026 70.4553 1.42026 70.9914 1.42026 71.5275C1.42026 71.6694 1.46943 71.8983 1.24731 71.894C1.02519 71.8898 1.08927 71.6588 1.08927 71.5169C1.08927 70.7943 1.08927 70.0739 1.08927 69.3513C1.08927 69.2072 1.02946 69.0059 1.24517 68.9593C1.46088 68.9127 1.51424 69.1246 1.58258 69.2708C1.83674 69.8238 2.08236 70.3832 2.33865 70.9363C2.40272 71.0719 2.41983 71.2965 2.58215 71.3071C2.74447 71.3177 2.77436 71.0952 2.83629 70.9596C3.10113 70.3938 3.35098 69.8217 3.60941 69.2644C3.67134 69.1267 3.70769 68.936 3.91486 68.9657C4.12202 68.9953 4.08573 69.1987 4.08786 69.3428C4.08786 70.0781 4.08786 70.8261 4.08786 71.5508C4.08786 71.6822 4.13268 71.894 3.94473 71.9004C3.73116 71.9004 3.76964 71.6885 3.7675 71.5381C3.7675 71.021 3.7675 70.504 3.7675 69.987L3.63292 69.9531C3.41935 70.4214 3.22286 70.8939 2.9922 71.3558C2.89182 71.5677 2.87685 71.9004 2.5992 71.9089C2.32155 71.9174 2.30877 71.5698 2.20626 71.3664C1.96705 70.8875 1.75344 70.3959 1.52919 69.9086L1.42026 69.9192Z" fill="#2F2F2F"/>
<path d="M54.9208 8.9081C54.9208 6.2594 54.9208 3.61212 54.9208 0.966253C54.9208 0.277592 54.9037 0.262759 54.1925 0.26064H46.7024C46.6405 -0.0148241 46.8284 0.00848386 47.0036 0.00848386H50.2072C51.7022 0.00848386 53.1972 0.00848386 54.7072 0.00848386C55.0062 0.00848386 55.0874 0.084766 55.0852 0.385658C55.0724 3.0619 55.0852 5.74026 55.0852 8.41862C55.0874 8.59661 55.0938 8.78096 54.9208 8.9081Z" fill="#3761BC"/>
<path d="M22.7607 70.3303H22.9316C23.6428 70.3303 23.7581 70.5167 23.4506 71.1609C23.2903 71.4892 23.0138 71.7474 22.6737 71.8862C22.3337 72.0249 21.9541 72.0345 21.6074 71.9131C21.2521 71.7938 20.9526 71.5506 20.7644 71.2287C20.5763 70.9068 20.5123 70.528 20.5844 70.1629C20.6257 69.8779 20.7473 69.6104 20.9353 69.3911C21.1232 69.1717 21.3698 69.0095 21.6465 68.9232C21.9233 68.8368 22.2191 68.8298 22.4997 68.9029C22.7803 68.976 23.0344 69.1263 23.2327 69.3365C23.3395 69.453 23.5296 69.6119 23.3459 69.7603C23.1622 69.9086 23.0811 69.6861 22.9786 69.5738C22.7813 69.3455 22.5022 69.2023 22.2004 69.1746C21.8986 69.1469 21.5979 69.2369 21.3618 69.4255C20.8877 69.8048 20.7873 70.6693 21.1482 71.2117C21.3176 71.4432 21.5672 71.6043 21.8491 71.6642C22.131 71.724 22.4252 71.6784 22.6753 71.5359C22.8259 71.4537 22.9531 71.3349 23.0447 71.1905C23.1387 71.0465 23.2391 70.8897 23.1494 70.7159C23.0597 70.5421 22.8739 70.6036 22.7223 70.5951C22.5706 70.5866 22.3805 70.5951 22.2075 70.5951C22.1242 70.5951 22.0196 70.5951 22.0153 70.4765C22.0111 70.3578 22.1093 70.3493 22.1947 70.3472C22.3805 70.3472 22.5664 70.3472 22.7522 70.3472L22.7607 70.3303Z" fill="#2F2F2F"/>
<path d="M28.241 40.1415C28.1305 40.1082 28.0131 40.1044 27.9006 40.1305C27.7881 40.1565 27.6845 40.2115 27.6003 40.2898C26.5986 41.0166 25.5927 41.735 24.5953 42.466C23.2519 43.445 21.9235 44.4451 20.5694 45.4113C20.3859 45.5185 20.2364 45.6747 20.1379 45.8619C20.0393 46.0492 19.9957 46.2602 20.012 46.4708C20.044 47.1362 20.012 47.8015 20.012 48.4669C19.7984 48.4669 19.8496 48.3122 19.8496 48.1999C19.8496 47.4222 19.8497 46.6425 19.839 45.869C19.8362 45.7992 19.8523 45.7299 19.8858 45.6684C19.9192 45.6069 19.9687 45.5554 20.0291 45.5194L28.0723 39.6647C28.1219 39.6394 28.1742 39.6195 28.2282 39.6054L28.241 40.1415Z" fill="#2F54A1"/>
<path d="M34.6845 70.4553C34.6906 70.6582 34.6552 70.8602 34.5803 71.049C34.5054 71.2379 34.3927 71.4098 34.249 71.5542C34.1052 71.6986 33.9334 71.8126 33.7439 71.8892C33.5545 71.9658 33.3513 72.0035 33.1468 72C32.939 71.9985 32.7337 71.9554 32.5432 71.8731C32.3527 71.7908 32.1809 71.6712 32.0382 71.5213C31.8956 71.3714 31.785 71.1945 31.713 71.0011C31.6411 70.8077 31.6094 70.6018 31.6198 70.3959C31.6192 69.9872 31.7817 69.5948 32.0719 69.3045C32.362 69.0143 32.7562 68.8498 33.1682 68.847C34.0609 68.8576 34.6973 69.5335 34.6845 70.4553ZM32.0042 70.4023C32.0042 71.1927 32.4463 71.6906 33.1596 71.6949C33.8302 71.6949 34.33 71.1694 34.3428 70.4489C34.3556 69.7285 33.8452 69.1521 33.1618 69.1542C32.4783 69.1564 32.0085 69.6437 32.0042 70.4023Z" fill="#2F2F2F"/>
<path d="M59.5062 71.1673C59.5651 70.8544 59.5824 70.5353 59.5575 70.218C59.5575 69.9065 59.5575 69.595 59.5575 69.2835C59.5575 69.15 59.5297 68.9487 59.7262 68.9572C59.9227 68.9657 59.8757 69.1691 59.8779 69.2983C59.8779 70.0484 59.8779 70.7986 59.8779 71.5508C59.8779 71.6843 59.9184 71.8602 59.7347 71.911C59.5511 71.9619 59.4614 71.7966 59.3759 71.6694C59.0043 71.1164 58.637 70.5591 58.2654 70.0039C58.1885 69.8895 58.1394 69.7476 57.945 69.6734C57.8968 70.1195 57.8826 70.5686 57.9023 71.0168C57.9023 71.2287 57.9023 71.4406 57.9023 71.6525C57.9023 71.7648 57.8895 71.9046 57.7336 71.9004C57.5777 71.8962 57.5777 71.7563 57.5777 71.6461C57.5777 71.1079 57.5777 70.5697 57.5777 70.0315C57.5777 69.7772 57.5777 69.5208 57.5777 69.2666C57.5777 69.1415 57.5584 68.9932 57.7101 68.9381C57.8617 68.883 57.9749 68.9996 58.0561 69.1225C58.4426 69.6988 58.8249 70.2794 59.2136 70.8579C59.2711 70.9922 59.3748 71.1019 59.5062 71.1673Z" fill="#2F2F2F"/>
<path d="M51.0209 71.1694C51.079 70.8543 51.0955 70.533 51.07 70.2137C51.0807 69.9319 51.07 69.648 51.07 69.3661C51.07 69.2136 50.9995 68.9593 51.243 68.9635C51.4566 68.9635 51.3883 69.2051 51.3883 69.3471C51.3968 70.0689 51.3968 70.7915 51.3883 71.5148C51.3883 71.6588 51.4437 71.8559 51.2408 71.9131C51.038 71.9703 50.9675 71.7966 50.8821 71.6694C50.5104 71.1143 50.1431 70.557 49.7736 70.0018C49.694 69.8464 49.5679 69.7191 49.4127 69.6374V70.4701C49.4127 70.8812 49.4127 71.2923 49.3999 71.7012C49.3999 71.8029 49.3635 71.9131 49.2311 71.9131C49.0987 71.9131 49.0859 71.8241 49.0859 71.7372C49.0859 70.8727 49.0859 70.0089 49.0859 69.1458C49.0823 69.1208 49.0839 69.0953 49.0906 69.0709C49.0972 69.0465 49.1087 69.0238 49.1245 69.0039C49.1403 68.9841 49.16 68.9677 49.1823 68.9557C49.2047 68.9436 49.2293 68.9362 49.2546 68.9339C49.4084 68.9169 49.4853 69.0271 49.5579 69.133C49.9359 69.7009 50.3118 70.2688 50.692 70.8282C50.7595 70.9756 50.8755 71.0959 51.0209 71.1694Z" fill="#2F2F2F"/>
<path d="M16.6802 69.6903C16.6802 70.2561 16.6909 70.8134 16.6802 71.3707C16.6802 71.5571 16.7934 71.8877 16.4944 71.8813C16.2509 71.8813 16.3556 71.5571 16.3513 71.377C16.3385 70.7117 16.3406 70.0442 16.3513 69.3788C16.3513 69.222 16.2808 69.0059 16.4986 68.9381C16.7165 68.8703 16.7913 69.0695 16.8831 69.2051C17.2483 69.7475 17.6071 70.2921 17.9702 70.8346C18.0375 70.976 18.1451 71.0946 18.2799 71.1757C18.3909 70.7244 18.3183 70.29 18.3375 69.8641C18.3375 69.6225 18.3375 69.3831 18.3525 69.1415C18.3525 69.0377 18.3973 68.9296 18.5276 68.9487C18.6579 68.9678 18.6558 69.0546 18.6579 69.1436C18.6579 69.4975 18.6579 69.8514 18.6579 70.2031C18.6579 70.6566 18.6579 71.11 18.6579 71.5635C18.6579 71.697 18.6942 71.8707 18.502 71.9131C18.3098 71.9555 18.25 71.8072 18.171 71.7012C17.7758 71.1121 17.3871 70.5188 16.992 69.9298C16.9279 69.8323 16.8916 69.7115 16.6802 69.6903Z" fill="#2F2F2F"/>
<path d="M62.1759 70.451C62.1759 71.0422 62.4108 71.4194 62.8786 71.6037C63.3463 71.7881 63.8311 71.6779 64.254 71.2181C64.3565 71.1058 64.4676 70.9765 64.6085 71.074C64.7837 71.1969 64.6085 71.3262 64.5316 71.4258C64.4006 71.5849 64.2392 71.7167 64.0566 71.8136C63.874 71.9105 63.6738 71.9705 63.4677 71.9902C63.2616 72.0099 63.0536 71.9889 62.8557 71.9284C62.6578 71.8679 62.4739 71.7691 62.3147 71.6377C61.9912 71.3311 61.8034 70.9098 61.7926 70.466C61.7818 70.0223 61.9489 69.5925 62.2571 69.2708C62.5599 68.9956 62.9586 68.8479 63.3691 68.859C63.7795 68.8701 64.1696 69.039 64.4569 69.3301C64.5219 69.4049 64.5771 69.4875 64.6214 69.5759C64.6325 69.5899 64.6406 69.606 64.6452 69.6233C64.6498 69.6405 64.6509 69.6585 64.6483 69.6761C64.6457 69.6938 64.6395 69.7107 64.6301 69.7259C64.6207 69.7411 64.6083 69.7542 64.5936 69.7645C64.5644 69.7855 64.5293 69.7968 64.4932 69.7968C64.4571 69.7968 64.422 69.7855 64.3928 69.7645C64.3389 69.7192 64.2896 69.6688 64.2455 69.614C63.8354 69.1733 63.3591 69.0462 62.8615 69.2453C62.4045 69.4255 62.1695 69.8387 62.1759 70.451Z" fill="#2F2F2F"/>
<path d="M68.974 71.9216C68.7775 71.8877 68.8373 71.7457 68.8757 71.6313C69.006 71.2563 69.1448 70.8854 69.2837 70.5125C69.446 70.0739 69.6083 69.6353 69.7749 69.1988C69.8261 69.0653 69.8838 68.9296 70.0675 68.9381C70.2512 68.9466 70.3024 69.078 70.3537 69.2115C70.6505 70.0082 70.9496 70.8049 71.2422 71.6038C71.2827 71.7118 71.3767 71.8665 71.1866 71.9216C70.9966 71.9767 70.9538 71.8263 70.9239 71.7097C70.8278 71.3029 70.5438 71.2287 70.1786 71.2563C69.8134 71.2838 69.3478 71.1355 69.2068 71.6928C69.1981 71.7507 69.1708 71.8044 69.1288 71.8456C69.0868 71.8869 69.0325 71.9135 68.974 71.9216ZM70.0803 70.9448C70.5844 70.9448 70.6271 70.8918 70.4348 70.4002C70.3281 70.129 70.2811 69.631 70.0803 69.6437C69.7771 69.6628 69.8048 70.1332 69.6916 70.4066C69.5015 70.8664 69.5763 70.9427 70.0803 70.9448Z" fill="#2F2F2F"/>
<path d="M55.7729 71.7563C55.7729 71.8495 55.7558 71.911 55.6704 71.9258C55.6489 71.9327 55.6263 71.9352 55.6039 71.9332C55.5814 71.9312 55.5596 71.9248 55.5397 71.9144C55.5198 71.9039 55.5022 71.8896 55.488 71.8723C55.4737 71.8549 55.4631 71.835 55.4568 71.8135C55.3372 71.1778 54.8609 71.252 54.3889 71.2456C54.0365 71.2456 53.7739 71.3113 53.6735 71.6906C53.6436 71.8072 53.5731 71.9618 53.4108 71.9025C53.2485 71.8432 53.3232 71.6906 53.3617 71.5804C53.6464 70.7795 53.9419 69.9813 54.248 69.186C54.2971 69.0504 54.3591 68.919 54.5427 68.9296C54.7264 68.9402 54.7563 69.044 54.8097 69.1669C55.1173 69.9905 55.4241 70.8141 55.7302 71.6376C55.7474 71.6761 55.7617 71.7157 55.7729 71.7563ZM54.5491 69.5272C54.352 69.8756 54.1999 70.2472 54.0963 70.6333C54.0825 70.6656 54.077 70.7009 54.0804 70.7359C54.0837 70.7709 54.0958 70.8045 54.1155 70.8337C54.1352 70.863 54.1619 70.8868 54.1932 70.9033C54.2246 70.9197 54.2595 70.9281 54.295 70.9278C54.4799 70.9394 54.6654 70.9394 54.8503 70.9278C54.9891 70.9278 55.0639 70.8346 55.0169 70.6947C54.9073 70.2888 54.7503 69.897 54.5491 69.5272Z" fill="#2F2F2F"/>
<path d="M8.3721 71.7436C8.3721 71.8135 8.38281 71.8919 8.29524 71.9195C8.2717 71.9294 8.24626 71.9342 8.22068 71.9335C8.1951 71.9328 8.16994 71.9265 8.147 71.9153C8.12407 71.904 8.1039 71.8879 8.08782 71.8682C8.07174 71.8484 8.06015 71.8254 8.05388 71.8008C7.8403 70.985 7.1996 71.3007 6.68702 71.269C6.435 71.2541 6.388 71.4809 6.30257 71.6652C6.24277 71.7881 6.1979 71.9746 6.01209 71.9046C5.82628 71.8347 5.94163 71.68 5.98007 71.5741C6.26484 70.7887 6.55532 70.0039 6.85148 69.2199C6.89846 69.0886 6.9476 68.9445 7.12913 68.936C7.19389 68.9332 7.25758 68.9528 7.30939 68.9914C7.3612 69.0301 7.39788 69.0854 7.41315 69.1479C7.72497 69.9842 8.03753 70.8212 8.35078 71.6588C8.35932 71.6864 8.36356 71.7161 8.3721 71.7436ZM7.14405 69.5208C6.95074 69.876 6.79955 70.2521 6.69343 70.6418C6.63363 70.8134 6.72974 70.9193 6.90701 70.9299C7.0777 70.9405 7.24887 70.9405 7.41957 70.9299C7.60751 70.9299 7.66948 70.8134 7.60754 70.6418C7.49259 70.2532 7.33723 69.8775 7.14405 69.5208Z" fill="#2F2F2F"/>
<path d="M10.5848 70.1883C10.9311 69.9096 11.252 69.6012 11.5437 69.2665C11.6334 69.1754 11.7188 69.078 11.8128 68.9932C11.9068 68.9084 12.0264 68.8533 12.1161 68.9551C12.2058 69.0568 12.0883 69.1331 12.0264 69.2009C11.7381 69.5145 11.4583 69.8365 11.155 70.1353C10.9414 70.3472 10.9414 70.4998 11.155 70.7032C11.4476 70.9935 11.7231 71.3007 11.9986 71.608C12.0734 71.6906 12.2443 71.786 12.0969 71.911C11.9901 72 11.8513 71.911 11.7573 71.8156C11.5031 71.5508 11.2575 71.2732 10.9969 71.0126C10.903 70.9214 10.8303 70.7286 10.6659 70.8007C10.5442 70.86 10.6061 71.0316 10.5997 71.1545C10.589 71.3389 10.5997 71.5232 10.5848 71.7055C10.5848 71.8114 10.5356 71.9174 10.4053 71.8962C10.2751 71.875 10.2708 71.7945 10.2708 71.7076C10.2708 70.8459 10.2708 69.9828 10.2708 69.1182C10.2708 69.0292 10.3114 68.9445 10.4139 68.9402C10.5164 68.936 10.5848 69.0356 10.5869 69.1394C10.5869 69.4636 10.5848 69.7836 10.5848 70.1883Z" fill="#2F2F2F"/>
<path d="M38.7937 70.1544C38.7937 70.4362 38.8108 70.7202 38.7937 71.002C38.7886 71.1404 38.7556 71.2765 38.6966 71.402C38.6377 71.5276 38.5539 71.6402 38.4504 71.7333C38.3469 71.8263 38.2258 71.8978 38.094 71.9436C37.9622 71.9894 37.8225 72.0086 37.6831 72C37.5436 72.0098 37.4036 71.9914 37.2715 71.9458C37.1394 71.9002 37.0181 71.8285 36.9148 71.7349C36.8115 71.6414 36.7285 71.528 36.6708 71.4016C36.613 71.2753 36.5818 71.1386 36.579 70.9999C36.5576 70.4193 36.579 69.8408 36.579 69.2602C36.579 69.1415 36.5533 68.9593 36.722 68.9551C36.9356 68.9551 36.895 69.1458 36.8972 69.2771C36.9079 69.7857 36.8972 70.2964 36.9079 70.8049C36.9207 71.3728 37.1919 71.6779 37.6703 71.6885C38.1487 71.6991 38.452 71.3961 38.4712 70.8007C38.4862 70.2921 38.4712 69.7836 38.484 69.275C38.484 69.1437 38.4563 68.9466 38.6613 68.9551C38.83 68.9551 38.8022 69.1437 38.8044 69.2623C38.8044 69.5611 38.8044 69.8577 38.8044 70.1544H38.7937Z" fill="#2F2F2F"/>
<path d="M41.6514 8.07957H34.0737C33.433 8.07957 33.3989 8.10288 33.3989 8.75129V19.202C33.3989 19.4393 33.433 19.6872 33.2686 19.8949C33.2686 16.0574 33.2686 12.2179 33.2686 8.37835C33.2686 7.98846 33.3732 7.88887 33.7641 7.89311C36.2608 7.91006 38.7595 7.89311 41.2584 7.90794C41.3844 7.91641 41.6236 7.78292 41.6514 8.07957Z" fill="#3761BC"/>
<path d="M91.2562 70.4214C91.2562 70.04 91.2562 69.6586 91.2562 69.2771C91.2562 69.0059 91.3694 68.8873 91.6385 68.8936C91.9674 68.8936 92.2942 68.8936 92.6231 68.8936C92.6936 68.8936 92.7769 68.9084 92.7897 68.9953C92.8046 69.1182 92.7 69.1225 92.6188 69.1288C92.4907 69.1288 92.3626 69.1288 92.2344 69.1288C91.6514 69.1288 91.395 69.5272 91.6236 70.0633C91.7133 70.2752 91.8991 70.2158 92.0614 70.2497C92.275 70.2964 92.6594 70.1099 92.6701 70.4108C92.6701 70.6523 92.2899 70.557 92.087 70.5464C91.6236 70.5231 91.5916 70.7858 91.5916 71.1376C91.5916 71.4893 91.6535 71.7245 92.0827 71.6779C92.2676 71.6652 92.4532 71.6652 92.6381 71.6779C92.7085 71.6779 92.7876 71.6991 92.7961 71.786C92.8046 71.8729 92.7363 71.9131 92.6616 71.9152C92.2622 71.9152 91.8628 71.9152 91.4655 71.9152C91.2776 71.9152 91.2626 71.7415 91.252 71.5974C91.252 71.2012 91.252 70.8049 91.252 70.4087L91.2562 70.4214Z" fill="#2F2F2F"/>
<path d="M80.2977 70.3663C80.5882 70.0357 80.6907 69.6755 80.8722 69.364C80.9427 69.2411 81.0025 69.1119 81.0858 68.9974C81.0984 68.9756 81.1155 68.9567 81.1359 68.9418C81.1563 68.9269 81.1796 68.9165 81.2044 68.9111C81.2291 68.9057 81.2547 68.9055 81.2796 68.9105C81.3044 68.9155 81.3279 68.9257 81.3486 68.9402C81.4404 69.0038 81.3806 69.0949 81.3486 69.1669C81.2418 69.3788 81.135 69.5907 81.0154 69.8026C80.6993 70.3493 80.4323 70.9024 80.5177 71.5614C80.5348 71.6906 80.5433 71.8898 80.3575 71.9025C80.1247 71.9195 80.144 71.6906 80.1568 71.5614C80.2764 70.6841 79.7488 70.0336 79.3922 69.3195C79.3324 69.2008 79.1423 69.0377 79.3516 68.9275C79.5609 68.8173 79.6207 69.0271 79.6933 69.1648C79.8834 69.5526 80.0799 69.9404 80.2977 70.3663Z" fill="#2F2F2F"/>
<path d="M27.9804 68.9127C28.1321 68.9254 28.194 69.0441 28.2495 69.1564C28.4118 69.4721 28.5656 69.792 28.7301 70.1014C28.7685 70.1735 28.824 70.2752 28.886 70.2879C29.0077 70.3112 29.0291 70.1756 29.0718 70.0929C29.2299 69.792 29.3772 69.4869 29.5353 69.186C29.6121 69.0377 29.7018 68.8237 29.9026 68.9402C30.0671 69.0356 29.8898 69.1903 29.8364 69.3068C29.7388 69.5254 29.6276 69.7377 29.5032 69.9425C29.1903 70.4025 29.0401 70.9525 29.0761 71.5063C29.091 71.6567 29.1316 71.9025 28.886 71.9025C28.6724 71.9025 28.6938 71.6716 28.713 71.5317C28.8283 70.718 28.3542 70.1035 28.0167 69.4424C27.9569 69.3301 27.8929 69.2199 27.8438 69.1034C27.7946 68.9868 27.8459 68.9169 27.9804 68.9127Z" fill="#2F2F2F"/>
<path d="M43.2553 70.396C43.2553 70.0273 43.2553 69.6586 43.2553 69.2899C43.2553 69.0313 43.345 68.8894 43.6248 68.8936C43.9686 68.8936 44.3104 68.8936 44.6521 68.8936C44.7525 68.8936 44.8785 68.8936 44.8891 69.0229C44.9041 69.1839 44.7589 69.186 44.6478 69.1924C44.4193 69.1924 44.1908 69.1924 43.9623 69.1924C43.5735 69.1924 43.5992 69.47 43.5971 69.7285C43.5949 69.987 43.597 70.237 43.9772 70.2561C44.2078 70.2561 44.6179 70.1163 44.6179 70.4193C44.6179 70.6566 44.21 70.54 43.9772 70.5528C43.6803 70.5676 43.5735 70.7011 43.5821 70.9766C43.5821 71.2033 43.5821 71.43 43.5821 71.6546C43.5821 71.7712 43.5522 71.9004 43.3963 71.8835C43.2724 71.8707 43.2596 71.7521 43.2596 71.6525C43.2596 71.2287 43.2596 70.8049 43.2596 70.3811L43.2553 70.396Z" fill="#2F2F2F"/>
<path d="M98.2807 70.3027C98.2807 70.6121 98.2957 70.9236 98.2807 71.2329C98.2593 71.5847 98.4131 71.7076 98.757 71.6991C98.9364 71.6991 99.276 71.5953 99.2696 71.8072C99.2696 72.0678 98.9279 71.9407 98.7399 71.9449C97.9433 71.9619 97.9433 71.9449 97.9433 71.1397C97.9433 70.5189 97.9433 69.898 97.9433 69.2793C97.9433 69.1479 97.9049 68.9487 98.1099 68.9529C98.3149 68.9572 98.2722 69.1542 98.2743 69.2856C98.2743 69.6247 98.2743 69.9637 98.2743 70.3027H98.2807Z" fill="#2F2F2F"/>
<path d="M76.2547 70.4108C76.2547 70.059 76.2441 69.7052 76.2547 69.3513C76.2547 69.203 76.1715 68.9508 76.432 68.9551C76.6456 68.9551 76.5836 69.1924 76.5858 69.3365C76.5858 69.9277 76.5858 70.521 76.5858 71.1122C76.5858 71.7034 76.5858 71.68 77.156 71.6885C77.2543 71.6885 77.3546 71.6885 77.4529 71.6991C77.5511 71.7097 77.6003 71.7288 77.6024 71.8157C77.6045 71.9025 77.5362 71.9364 77.4614 71.9386C77.1346 71.9386 76.8079 71.9386 76.4811 71.9386C76.2676 71.9386 76.2547 71.7606 76.2483 71.5995C76.2483 71.572 76.2483 71.5444 76.2483 71.5148L76.2547 70.4108Z" fill="#2F2F2F"/>
<path d="M95.1092 70.3112C95.1092 70.6057 95.1262 70.9045 95.1092 71.199C95.0857 71.5571 95.2181 71.7161 95.5961 71.6991C95.7734 71.6991 96.1023 71.5868 96.1044 71.8178C96.1065 72.0487 95.7798 71.9428 95.6047 71.9449C94.6991 71.9449 94.7781 72.0191 94.7738 71.1312C94.7738 70.5252 94.7738 69.9192 94.7738 69.3132C94.7738 69.1733 94.714 68.9487 94.949 68.9551C95.1412 68.9551 95.1027 69.167 95.1049 69.2962C95.1049 69.6331 95.1049 69.9722 95.1049 70.3112H95.1092Z" fill="#2F2F2F"/>
<path d="M73.1729 70.4066C73.1729 70.0103 73.1729 69.6162 73.1729 69.2221C73.1729 69.0992 73.1729 68.936 73.3523 68.9508C73.4975 68.9508 73.4996 69.1055 73.5017 69.2178C73.5017 69.8662 73.5231 70.5146 73.5017 71.163C73.4868 71.5677 73.632 71.7436 74.0421 71.6928C74.0838 71.6853 74.1265 71.6853 74.1681 71.6928C74.2941 71.7182 74.5163 71.6271 74.5141 71.8241C74.512 72.0212 74.3005 71.947 74.166 71.947C73.0191 71.947 73.1857 72.0572 73.1686 70.9977C73.1686 70.8007 73.1686 70.6036 73.1686 70.4066H73.1729Z" fill="#2F2F2F"/>
<path d="M66.6589 70.4235C66.6589 70.0145 66.6589 69.6056 66.6589 69.1966C66.6589 69.0864 66.6589 68.9487 66.8212 68.9487C66.9835 68.9487 66.9856 69.0864 66.9856 69.1987C66.9856 70.0167 66.9856 70.8325 66.9856 71.6504C66.9856 71.7627 66.9856 71.9004 66.8212 71.9004C66.6567 71.9004 66.6631 71.7584 66.661 71.6504C66.6567 71.2414 66.6589 70.8325 66.6589 70.4235Z" fill="#2F2F2F"/>
<path d="M14.0276 70.3896C14.0276 69.9933 14.0276 69.5992 14.0276 69.2051C14.0276 69.0949 14.0276 68.9551 14.1835 68.9487C14.3394 68.9423 14.3544 69.078 14.3544 69.1903C14.3544 70.0082 14.3544 70.8261 14.3544 71.644C14.3544 71.7563 14.3544 71.8983 14.1942 71.9004C14.0084 71.9004 14.0276 71.7351 14.0255 71.6165C14.0233 71.2075 14.0276 70.7985 14.0276 70.3896Z" fill="#2F2F2F"/>
<path d="M47.1018 70.4405C47.1018 70.8494 47.1018 71.2584 47.1018 71.6673C47.1018 71.7796 47.0783 71.911 46.9224 71.9004C46.7664 71.8898 46.7793 71.7754 46.7793 71.6885C46.7793 70.8558 46.7793 70.0251 46.7793 69.1924C46.7793 69.0801 46.7964 68.9424 46.9566 68.9593C47.1167 68.9763 47.1061 69.1119 47.1061 69.2242C47.1061 69.6331 47.1061 70.0421 47.1061 70.4511L47.1018 70.4405Z" fill="#2F2F2F"/>
<path d="M28.0915 30.8986L28.241 30.7079C28.2453 30.8139 28.1727 30.8605 28.0915 30.8986Z" fill="#2E53A0"/>
<path d="M33.2493 48.3927L33.3134 48.4626C33.2685 48.4669 33.2429 48.4414 33.2493 48.3927Z" fill="#30427E"/>
<path d="M46.696 48.3969L46.7665 48.4647C46.7238 48.4669 46.6939 48.4457 46.696 48.3969Z" fill="#2F54A1"/>
<path d="M28.1748 48.4669L28.241 48.4033C28.2453 48.4457 28.2218 48.4669 28.1748 48.4669Z" fill="#2F54A1"/>
<path d="M55.0083 48.4669C55.0336 48.4542 55.0545 48.4343 55.0681 48.4097L55.0083 48.4669Z" fill="#3761BC"/>
</g>
<defs>
<clipPath id="clip0_7_7">
<rect width="100" height="72" fill="white"/>
</clipPath>
</defs>
</svg>
