<svg width="24" height="24" viewBox="0 0 24 24" fill="none" xmlns="http://www.w3.org/2000/svg">
<path d="M18.157 16.8821L16.97 18.0561C16.095 18.9141 14.96 20.0181 13.564 21.3681C13.1444 21.7738 12.5836 22.0006 12 22.0006C11.4164 22.0006 10.8556 21.7738 10.436 21.3681L6.945 17.9721C6.505 17.5411 6.139 17.1781 5.843 16.8821C4.62537 15.6644 3.79617 14.113 3.46026 12.424C3.12435 10.735 3.29681 8.98435 3.95584 7.39339C4.61487 5.80243 5.73087 4.44261 7.16272 3.48591C8.59456 2.5292 10.2779 2.01855 12 2.01855C13.7221 2.01855 15.4054 2.5292 16.8373 3.48591C18.2691 4.44261 19.3851 5.80243 20.0442 7.39339C20.7032 8.98435 20.8757 10.735 20.5397 12.424C20.2038 14.113 19.3746 15.6644 18.157 16.8821ZM14.5 11.0001C14.5 10.3371 14.2366 9.70119 13.7678 9.23235C13.2989 8.7635 12.663 8.50011 12 8.50011C11.337 8.50011 10.7011 8.7635 10.2322 9.23235C9.7634 9.70119 9.5 10.3371 9.5 11.0001C9.5 11.6632 9.7634 12.299 10.2322 12.7679C10.7011 13.2367 11.337 13.5001 12 13.5001C12.663 13.5001 13.2989 13.2367 13.7678 12.7679C14.2366 12.299 14.5 11.6632 14.5 11.0001Z" fill="white"/>
</svg>
