<svg width="24" height="24" viewBox="0 0 24 24" fill="none" xmlns="http://www.w3.org/2000/svg">
<path d="M18.3281 22.5001C17.4131 22.5001 16.1278 22.1691 14.2031 21.0938C11.8627 19.7813 10.0523 18.5696 7.72454 16.2479C5.48016 14.0049 4.38797 12.5527 2.85938 9.77115C1.13251 6.63052 1.42688 4.98427 1.75594 4.28068C2.14782 3.43974 2.72625 2.93677 3.47391 2.43755C3.89858 2.15932 4.34798 1.92081 4.81641 1.72505C4.86329 1.7049 4.90688 1.68568 4.94579 1.66833C5.17782 1.5638 5.52938 1.40583 5.97469 1.57458C6.27188 1.68615 6.53719 1.91443 6.95251 2.32458C7.80422 3.16458 8.96813 5.03537 9.3975 5.95412C9.68579 6.57333 9.87657 6.98208 9.87704 7.44052C9.87704 7.97724 9.60704 8.39115 9.27938 8.83787C9.21797 8.92177 9.15704 9.00193 9.09797 9.07974C8.74125 9.54849 8.66297 9.68396 8.71454 9.92583C8.81907 10.4119 9.5986 11.859 10.8797 13.1372C12.1608 14.4155 13.5661 15.1458 14.0541 15.2499C14.3063 15.3038 14.4445 15.2222 14.9283 14.8529C14.9977 14.7999 15.0689 14.7451 15.1434 14.6902C15.6431 14.3185 16.0378 14.0555 16.5619 14.0555H16.5647C17.0208 14.0555 17.4113 14.2533 18.0581 14.5796C18.9019 15.0052 20.8289 16.1541 21.6741 17.0068C22.0852 17.4211 22.3144 17.6855 22.4264 17.9822C22.5952 18.429 22.4363 18.7791 22.3327 19.0135C22.3153 19.0524 22.2961 19.0951 22.2759 19.1424C22.0786 19.61 21.8387 20.0585 21.5592 20.4821C21.0609 21.2274 20.5561 21.8044 19.7133 22.1968C19.2805 22.4015 18.8069 22.5052 18.3281 22.5001Z" fill="white"/>
</svg>
