<svg id="BACKGROUND" xmlns="http://www.w3.org/2000/svg" viewBox="0 0 468.22 339.79"><defs><style>.cls-1{fill:#d90000;}.cls-2{fill:#da0000;}.cls-3{fill:#284790;}.cls-4{fill:#28478f;}.cls-5{fill:#2e53a0;}.cls-6{fill:#2f54a1;}.cls-7{fill:#fff;}.cls-8{fill:#2c327d;}.cls-9{fill:#30427e;}.cls-10{fill:#29237e;}.cls-11{fill:#3761bc;}</style></defs><path class="cls-1" d="M292,61.8c-.22.74-.84.94-1.31,1.28q-18.73,13.78-37.48,27.56-32.8,24.1-65.61,48.2Q135,177.42,82.46,216c-1.42,1.05-1.94.8-2.84-.56Q59.8,185.87,39.87,156.38c-.95-1.42-.86-1.93.66-2.74q10-5.31,19.86-10.9c1.55-.87,2.18-.87,3,.93,7.11,16,14.36,31.92,21.51,47.9.66,1.49,1.09,1.58,2.32.55q40.46-33.57,81-67.06Q219.93,82.2,271.63,39.29c1.34-1.11,1.88-.95,2.88.33C280,46.7,285.6,53.7,291.15,60.73,291.44,61.09,291.71,61.47,292,61.8Z"/><path class="cls-2" d="M314,144.49c13.58,0,27.16,0,40.73,0A12.37,12.37,0,0,0,367.09,135a12,12,0,0,0-11-14.49c-.93-.07-1.87,0-2.81,0q-35.11,0-70.23,0a11.57,11.57,0,0,1-10.83-6.35,11.39,11.39,0,0,1,.48-12.19,11.15,11.15,0,0,1,9.72-5.49c24.61-.06,49.23-.25,73.84,0,18.36.22,33.93,15.33,35.25,33.45a36.21,36.21,0,0,1-29.92,38.17,37.63,37.63,0,0,1-6.79.54c-19.19,0-38.39,0-57.59,0-1.79,0-2.35.41-2.34,2.29q.12,22.78,0,45.55c0,7-5.13,12.3-11.8,12.39a12,12,0,0,1-12.33-12.27q0-25,0-50c0-6.55.07-13.11,0-19.66,0-1.88.37-2.47,2.37-2.45C286.73,144.54,300.38,144.49,314,144.49Z"/><path class="cls-3" d="M131.53,145.83c-4.91,4.1-9.79,8.23-14.71,12.32q-10.25,8.49-20.53,16.94a11.44,11.44,0,0,1-1.15.76c-1.64-.55-1.37-2-1.37-3.19q0-43.53,0-87c0-3.09.24-3.33,3.31-3.33,10.43,0,20.86,0,31.29,0a8.18,8.18,0,0,1,3.87.82c0,4.4.07,8.8.08,13.2q0,23,0,46c0,.86-.05,1.73-.08,2.59Z"/><path class="cls-4" d="M194.52,228.71H156.37c0-18.59,0-37.18,0-55.77a5,5,0,0,1,2.44-4.67c2.61-1.72,5.13-3.61,7.66-5.46q12.87-9.37,25.73-18.77c.56-.41,1.06-1.34,1.82-1s.42,1.43.52,2.19a7.12,7.12,0,0,1,0,.8Z"/><path class="cls-5" d="M195,38.13c0,.66.14,1.32.14,2q0,25.64,0,51.26a3.49,3.49,0,0,1-1.3,3.12c-6.89,5.58-13.73,11.24-20.58,16.88a18.92,18.92,0,0,0-1.26-1.55q-6.91-6.94-13.86-13.86c-.4-.39-.75-1.17-1.41-.88s-.38,1.07-.38,1.64q0,14.3,0,28.6c-.51.43-.73.12-.75-.35-.06-.86,0-1.73,0-2.6q0-13.12,0-26.25c0-.73.08-1.46.13-2.19.77-1,.61-2.15.61-3.27V41.34c0-3.05.12-3.16,3.16-3.17Z"/><path class="cls-6" d="M218.64,156.94l0-32.51q6.29-4.62,12.57-9.24l23.94-17.51c.42-.31.8-.81,1.4-.52s.51.89.54,1.42,0,1.07,0,1.6q0,46.84,0,93.68c-.69-.62-1.42-1.21-2.08-1.87-11.27-11.2-22.38-22.57-33.91-33.51A4.24,4.24,0,0,0,218.64,156.94Z"/><path class="cls-6" d="M257.15,42c-5.69,4.75-11.36,9.52-17.07,14.25q-9.79,8.13-19.63,16.21c-.49.4-.88,1-1.62,1-.4-.42-.24-.91-.24-1.34q0-35,0-70c0-.33,0-.66.07-1l35.07,0c3.33,0,3.4.07,3.4,3.33Q257.15,23.31,257.15,42Z"/><path class="cls-3" d="M218.64,156.94a4.24,4.24,0,0,1,2.5,1.54c11.53,10.94,22.64,22.31,33.91,33.51.66.66,1.39,1.25,2.08,1.87l.74.79,0,33.78a.66.66,0,0,1-.28.27q-14.51,0-29,.08c-3.19,0-6.39,0-9.59-.06l-.33-.32c0-2.47-.07-4.93-.07-7.4q0-30.74,0-61.46C218.57,158.67,218.61,157.81,218.64,156.94Z"/><path class="cls-3" d="M131.92,228.72H93.76c0-3.14.11-6.28,0-9.41a5.34,5.34,0,0,1,2.61-5c6.34-4.56,12.56-9.27,18.85-13.9,4.67-3.44,9.38-6.84,14.07-10.26a3.05,3.05,0,0,1,3-.7v39Z"/><path class="cls-7" d="M187.84,287.09c0-6.36,0-12.71,0-19.06,0-2.57.16-2.69,2.76-2.69q7,0,14,0a18.17,18.17,0,0,1,7.24,1.4c5.11,2.22,7.87,6.09,7.9,11.7s-2.54,9.77-7.79,12c-1.75.72-1.62,1.41-.8,2.76,2.61,4.28,5.13,8.62,7.66,12.95.39.67,1.25,1.39.86,2.12s-1.57.4-2.4.43c-1.74.05-3.48-.06-5.21,0a2.77,2.77,0,0,1-2.85-1.69c-2.49-4.51-5.1-8.95-7.59-13.45a2.89,2.89,0,0,0-2.81-1.77c-1.62,0-2.29.51-2.26,2.19.08,4.07-.06,8.16.05,12.23.06,2-.69,2.51-2.57,2.51-6.25,0-6.25,0-6.25-6.2V287.09Zm8.8-8.15h0v4.6c0,.87.16,1.69,1.24,1.69,2.79,0,5.61.35,8.37-.25,3-.64,4.65-3,4.61-6.16s-1.66-5.35-4.8-6c-2.64-.52-5.32-.2-8-.23-1,0-1.43.56-1.43,1.51C196.63,275.74,196.64,277.34,196.64,278.94Z"/><path class="cls-7" d="M0,287q0-9,0-18c0-3.58,0-3.58,3.48-3.58,4.42,0,8.83,0,13.24,0a18.32,18.32,0,0,1,7.61,1.52c5.08,2.32,7.69,6.28,7.62,11.87s-2.6,9.49-7.68,11.61c-1.82.76-1.76,1.44-.86,2.89,2.65,4.33,5.19,8.73,7.76,13.11,1.28,2.17,1.22,2.33-1.19,2.27s-5.39.87-7.47-.41-2.65-4.06-3.89-6.19c-1.69-2.89-3.4-5.76-4.92-8.73-.91-1.77-2.35-1.57-3.78-1.39-1.6.21-1.1,1.61-1.11,2.58-.06,3.87-.1,7.75,0,11.63.05,1.86-.5,2.75-2.49,2.55-1.12-.11-2.27,0-3.41,0-2.91,0-2.92,0-2.93-2.84V287Zm8.8-8v4.6c0,.89.24,1.64,1.3,1.64,2.73,0,5.48.32,8.18-.23,3.07-.63,4.81-3,4.74-6.25s-1.69-5.32-4.85-5.91c-2.64-.5-5.32-.2-8-.22-1,0-1.38.65-1.38,1.57C8.81,275.8,8.81,277.4,8.8,279Z"/><path class="cls-7" d="M310.94,287.18c0,6.35-.06,12.7,0,19.05,0,1.95-.66,2.65-2.56,2.49a24.28,24.28,0,0,0-4,0c-1.8.15-2.32-.66-2.29-2.35.08-4.41,0-8.82,0-13.23,0-2.85,0-2.86-2.95-2.86H286.57c-2.78,0-2.84.06-2.85,2.76,0,4.42-.06,8.83,0,13.24,0,1.79-.54,2.59-2.42,2.45a39.37,39.37,0,0,0-4.61,0c-1.3.05-1.8-.55-1.79-1.8,0-1.6,0-3.2,0-4.81q0-16.95,0-33.89c0-2.86,0-2.86,2.93-2.86,1.13,0,2.28.09,3.4,0,2-.2,2.54.7,2.49,2.56-.1,4.21,0,8.43-.05,12.64,0,1.85.51,2.63,2.49,2.58,4.55-.11,9.1-.08,13.64,0,1.72,0,2.39-.56,2.36-2.32-.09-4.35,0-8.69-.05-13,0-1.81.55-2.58,2.42-2.42a28.17,28.17,0,0,0,4.21,0c1.65-.11,2.22.57,2.2,2.21C310.9,274.08,310.94,280.63,310.94,287.18Z"/><path class="cls-7" d="M177,308.69c-5-.08-3.92.67-5.63-4.05s-.69-4.06-5.8-4.11c-3.61,0-7.22,0-10.83,0-1.42,0-2.3.46-2.61,1.88a3.23,3.23,0,0,1-.2.57c-.78,1.82-.65,4.52-2.33,5.36-2.2,1.11-5,.32-7.51.35-1.14,0-1.1-.73-.82-1.52.6-1.7,1.22-3.4,1.83-5.1,4.13-11.51,8.3-23,12.37-34.55.59-1.67,1.42-2.34,3.18-2.21a44.64,44.64,0,0,0,6,0c1.55-.1,2.09.71,2.54,2q5.19,14.55,10.43,29.07c1.18,3.27,2.36,6.53,3.52,9.81.83,2.35.7,2.53-1.74,2.56Zm-15.36-32.35-.57,0q-2.72,7.83-5.41,15.68c-.33,1,.09,1.37,1,1.37h9.23c.9,0,1.44-.37,1.1-1.37Q164.3,284.19,161.59,276.34Z"/><path class="cls-7" d="M262.57,278.9c-1,0-2,0-3,0a2.43,2.43,0,0,1-2.49-1.3c-3.44-6.13-14-6.36-18.8-1.17-5.08,5.47-4.88,16,.32,21.34,4.46,4.56,14.61,4.93,18.49-1.54a2.35,2.35,0,0,1,2.3-1.25c2.14.05,4.28.06,6.41,0,1.74-.05,1.94.71,1.3,2.1-3.21,7-8.81,10.71-16.3,11.76-9.82,1.38-19-3.31-23-11.73a23.42,23.42,0,0,1,4.65-26.65c10.17-9.68,28.45-6.7,34.36,5.61,1.21,2.53,1,2.8-1.78,2.82Z"/><path class="cls-7" d="M97.58,277.22c-.67,0-1.34,0-2,0a2.74,2.74,0,0,1-3.21-1.9c-1.42-3.32-6.87-4.4-9.73-2.17a4.68,4.68,0,0,0-.37,6.91,11.42,11.42,0,0,0,4.58,2.41c3,1,6.13,1.89,9.1,3.12,9.64,4,8.55,15.71,2.29,20.36-6,4.48-16.84,4.19-22.53-.75a11.64,11.64,0,0,1-3.93-7c-.22-1.33.17-2.06,1.65-2,1.2,0,2.41.06,3.61,0,2.22-.14,3.82,0,4.88,2.71,1.51,3.84,8.72,4.08,11.13.68a4.94,4.94,0,0,0-1.18-6.77,15.72,15.72,0,0,0-5.14-2.2,76.7,76.7,0,0,1-8.34-2.87c-9-3.9-8-15.61-2.06-19.88,5.69-4.07,15.85-4.15,21.42,0a12,12,0,0,1,4.55,7.33c.35,1.56-.2,2.12-1.7,2.05C99.58,277.18,98.58,277.22,97.58,277.22Z"/><path class="cls-7" d="M110.37,286.92c0-6.41,0-12.83,0-19.25,0-1.83.61-2.42,2.45-2.4,6.75.1,13.5.09,20.26,0,1.85,0,2.64.47,2.58,2.46-.14,5.39.51,4.68-4.72,4.73-3.27,0-6.55,0-9.83,0-1.37,0-1.94.53-1.92,1.89,0,2.34,0,4.68,0,7,0,1.38.6,1.91,1.94,1.89,3.48,0,7,.07,10.43,0,1.77,0,2.34.66,2.31,2.36-.08,5.37.35,4.51-4.44,4.57-2.81,0-5.62,0-8.43,0-1.29,0-1.82.52-1.8,1.78,0,2.54,0,5.09,0,7.62,0,1.51.66,2,2.08,1.95,4-.05,8,.05,12,0,1.71,0,2.39.52,2.36,2.3-.12,5.71.5,4.86-4.73,4.9-6,.05-12-.06-18.05.05-2,0-2.53-.67-2.51-2.55C110.42,299.76,110.37,293.34,110.37,286.92Z"/><path class="cls-7" d="M39.74,286.77c0-6.35,0-12.7,0-19,0-1.76.48-2.48,2.39-2.45,6.82.1,13.64.09,20.46,0,1.83,0,2.47.58,2.43,2.41-.12,5.45.52,4.73-4.66,4.78-3.21,0-6.42.07-9.63,0-1.69-.05-2.25.65-2.19,2.25.08,2.07.09,4.15,0,6.22-.08,1.71.54,2.41,2.3,2.36,3.41-.09,6.82,0,10.23,0,1.54,0,2.17.54,2.16,2.1-.06,5.76.4,4.74-4.59,4.82-2.67,0-5.35.06-8,0-1.43,0-2.1.44-2.07,1.94.06,2.47,0,5,0,7.42,0,1.46.57,2,2,2,4-.05,8,.06,12,0,1.86-.05,2.45.65,2.41,2.46-.12,5.49.49,4.72-4.68,4.75-6,.05-12-.05-18.05.05-1.9,0-2.59-.56-2.56-2.5C39.79,299.75,39.74,293.26,39.74,286.77Z"/><path class="cls-7" d="M374.32,275.57c-.43.93-.82,1.74-1.19,2.56q-6.33,14.17-12.67,28.37c-.5,1.11-.73,2.27-2.54,2.27s-2.07-1-2.58-2.19Q349,292.3,342.55,278c-.32-.72-.67-1.44-1.11-2.38a3.29,3.29,0,0,0-.37,2.19c0,9.63-.06,19.26,0,28.89,0,1.87-.77,2-2.25,2s-2.26-.18-2.24-2c.08-12.83,0-25.67.07-38.51,0-.8-.59-2,.83-2.33,2-.51,3.82,0,4.44,1.42q3.9,8.68,7.78,17.38l7.88,17.66c1-.55,1.1-1.46,1.44-2.2q7.21-16.08,14.39-32.2a4,4,0,0,1,5-2c1,.4.59,1.26.59,1.91q0,15.54,0,31.09c0,2.67-.13,5.35,0,8,.13,1.95-1,1.78-2.24,1.77s-2.28.24-2.25-1.74c.1-9.9,0-19.79,0-29.69A2,2,0,0,0,374.32,275.57Z"/><path class="cls-8" d="M360.22,213.57q-8-9.07-15.62-18.49c4.87-1.89,9.14-4.92,13.7-7.39,1.75-.95,3.42-2.13,5.57-1.85,1.18,1.36,2.38,2.7,3.54,4.08q5.77,6.92,11.52,13.86a8,8,0,0,0-3.45.95Z"/><path class="cls-7" d="M416.46,281c0-1.58.06-3.17,0-4.74-.06-1.17.41-1.46,1.49-1.5,2.94-.1,2.94-.14,2.94,2.84,0,9.69-.06,19.38,0,29.06,0,1.82-.67,2.08-2.2,2s-2.5,0-2.28-1.94a39.26,39.26,0,0,0,0-4.47c-.56-.1-.65.19-.8.39-4.21,5.59-10.19,7.68-17,5.92a15.74,15.74,0,0,1-11.47-13.31,20.5,20.5,0,0,1,1.75-12.69c5.24-10.21,19.87-11.37,26.63-2.13l.49.62Zm0,10.54a14,14,0,0,0-.49-3.94,12.28,12.28,0,0,0-10.29-9.4c-5.24-.74-10.26,1.54-12.53,6a15.6,15.6,0,0,0,.47,15.68A10.72,10.72,0,0,0,401,305C409.5,306.8,416.43,300.87,416.44,291.58Z"/><path class="cls-9" d="M363.87,185.84c-2.15-.28-3.82.9-5.57,1.85-4.56,2.47-8.83,5.5-13.7,7.39q-8.66-9.84-16.94-20c8.35,0,16.7,0,25-.08a4,4,0,0,1,3.32,1.51C358.62,179.62,361.25,182.72,363.87,185.84Z"/><path class="cls-10" d="M360.22,213.57l15.26-8.84a8,8,0,0,1,3.45-.95c4.62,4.8,8.67,10.09,13,15.15,1.12,1.31,2.47,2.46,3.08,4.15q-12.9,0-25.8.11a2.05,2.05,0,0,1-1.7-.85C365.08,219.41,362.64,216.49,360.22,213.57Z"/><path class="cls-7" d="M454.31,290.16c0-2.94,0-5.88,0-8.82,0-3.35.12-2.86-2.77-2.77-1.51.05-1.87-.44-2-1.89-.1-1.82.84-2,2.19-1.84,2,.29,2.8-.46,2.56-2.52-.17-1.45,0-2.94,0-4.41-.11-1.83,1.11-1.6,2.25-1.63s2.32-.06,2.25,1.69,0,3.34,0,5c-.07,1.36.4,1.93,1.83,1.86,2-.09,4,0,6,0,1.66,0,1.49,1,1.54,2.14s-.41,1.65-1.63,1.6c-2.06-.08-4.14,0-6.21,0-1.11,0-1.54.35-1.54,1.49,0,6.68,0,13.36.07,20,.07,3.59,1.34,4.69,4.95,4.87.67,0,1.33,0,2,0,2.35,0,2.64.39,2.34,2.72-.09.76-.39,1.06-1.12,1a37.74,37.74,0,0,1-6.2-.22c-3.92-.71-5.79-2.73-6.31-6.69a13.12,13.12,0,0,1-.15-1.39c0-3.41,0-6.82,0-10.22Z"/><path class="cls-4" d="M156.42,125.32q0-14.29,0-28.6c0-.57-.26-1.36.38-1.64s1,.49,1.41.88q6.94,6.92,13.86,13.86a18.92,18.92,0,0,1,1.26,1.55C167.8,116.18,162.15,120.8,156.42,125.32Z"/><path class="cls-7" d="M435.37,279.8a11.64,11.64,0,0,1,8.93-5.47c.8-.08,2.07-.91,2.29.88.35,2.85.09,3.41-1.84,3.57-6.6.57-9.58,3.63-9.73,10.32q-.19,8.82,0,17.64c0,1.86-.76,2-2.24,2s-2.27-.16-2.25-2q.14-15,0-30.06c0-2.1,1.17-1.75,2.41-1.85,1.46-.12,2.29.22,2.08,1.93A5.32,5.32,0,0,0,435.37,279.8Z"/><path class="cls-6" d="M194.52,228.71V146.06a7.12,7.12,0,0,0,0-.8c-.1-.76.34-1.79-.52-2.19s-1.26.57-1.82,1q-12.88,9.36-25.73,18.77c-2.53,1.85-5,3.74-7.66,5.46a5,5,0,0,0-2.44,4.67c.05,18.59,0,37.18,0,55.77l-.2,0-.19,0-.3-.34q0-28.87-.07-57.76a2.25,2.25,0,0,1,1-2q18.51-13.56,37-27.15c.36-.27.73-.76,1.21-.56.63.27.37.94.37,1.43q0,42.42,0,84.85C195.24,227.74,195.64,228.63,194.52,228.71Z"/><path class="cls-5" d="M132.23,83.1a8.18,8.18,0,0,0-3.87-.82c-10.43,0-20.86,0-31.29,0-3.07,0-3.3.24-3.31,3.33q0,43.51,0,87c0,1.23-.27,2.64,1.37,3.19a5.52,5.52,0,0,1-1.85,1.53c-.57-.57-.29-1.27-.29-1.88q0-46.41-.06-92.81c0-1.7.59-2,2.06-2,11.69,0,23.39.07,35.08,0C132,80.7,132.64,81.28,132.23,83.1Z"/><path class="cls-11" d="M395,223.08c-.61-1.69-2-2.84-3.08-4.15-4.31-5.06-8.36-10.35-13-15.15q-5.76-6.93-11.52-13.86c-1.16-1.38-2.36-2.72-3.54-4.08-2.62-3.12-5.25-6.22-7.85-9.35A4,4,0,0,0,352.7,175c-8.34.05-16.69.06-25,.08-.34-.29-.75-.53-.79-1.06.4-.38.9-.21,1.34-.22,8.68,0,17.36,0,26,0a2.4,2.4,0,0,1,2.08.87q20.12,23.91,40.28,47.77a3.85,3.85,0,0,1,.29.54C396.26,223.42,395.61,223.06,395,223.08Z"/><path class="cls-11" d="M257.87,194.65l-.74-.79q0-46.85,0-93.68c0-.53,0-1.07,0-1.6s0-1.14-.54-1.42-1,.21-1.4.52l-23.94,17.51q-6.3,4.61-12.57,9.24a1.61,1.61,0,0,1,.82-1.85Q238.26,108.84,257,95.06a3.19,3.19,0,0,1,.62-.3c.47.4.3.82.3,1.19q0,49,0,97.9C257.92,194.12,257.89,194.38,257.87,194.65Z"/><path class="cls-7" d="M405.64,336.39c.93-3.13,1.85-6.26,2.79-9.39.22-.74.26-1.71,1.33-1.75s1.26,1,1.5,1.81a77.23,77.23,0,0,0,3.18,9.41c.78-2.92,1.52-5.86,2.36-8.76.27-.93.15-2.73,1.52-2.33s.2,1.84,0,2.73c-.81,3.24-1.77,6.45-2.7,9.66-.21.74-.3,1.69-1.39,1.69s-1.18-.93-1.41-1.67a74.78,74.78,0,0,0-3.24-9.23l-2.1,6.73c-.34,1.08-.67,2.17-1,3.25a1.16,1.16,0,0,1-1.15.94,1.11,1.11,0,0,1-1.12-1q-1.69-6-3.34-12c-.13-.5-.31-1.14.48-1.28s.94.43,1.08,1c.56,2,1.08,4,1.62,6,.37,1.4.75,2.8,1.13,4.2Z"/><path class="cls-7" d="M6.65,330c0,2.53,0,5.06,0,7.59,0,.67.23,1.75-.81,1.73s-.74-1.11-.74-1.77q-.06-5.11,0-10.23c0-.68-.28-1.62.72-1.84s1.27.77,1.59,1.47c1.19,2.61,2.34,5.24,3.54,7.85.3.65.38,1.7,1.14,1.75s.9-1,1.19-1.64c1.24-2.66,2.41-5.36,3.62-8,.29-.64.46-1.55,1.43-1.41s.8,1.1.81,1.78c0,3.47,0,7,0,10.42,0,.62.21,1.62-.67,1.65-1,0-.82-1-.83-1.71,0-2.44,0-4.88,0-7.32l-.63-.16c-1,2.21-1.92,4.44-3,6.62-.47,1-.54,2.58-1.84,2.62s-1.36-1.61-1.84-2.56c-1.12-2.27-2.12-4.59-3.17-6.89Z"/><path class="cls-11" d="M257.15,42q0-18.73,0-37.47c0-3.26-.07-3.33-3.4-3.33l-35.07,0c-.29-1.3.59-1.19,1.41-1.19,5,0,10,0,15.05,0,7,0,14,0,21.07,0,1.4,0,1.78.37,1.77,1.78-.06,12.64,0,25.28,0,37.91C257.93,40.58,258,41.44,257.15,42Z"/><path class="cls-7" d="M106.57,331.91h.8c3.33,0,3.87.88,2.43,3.93a7,7,0,0,1-8.63,3.54,7.24,7.24,0,0,1-4.79-8.25c.54-2.92,2.12-5.07,5.07-5.88a6.87,6.87,0,0,1,7.33,2c.5.54,1.39,1.29.53,2s-1.24-.35-1.72-.89a5.46,5.46,0,0,0-7.57-.7c-2.22,1.8-2.69,5.88-1,8.43a5.47,5.47,0,0,0,7.15,1.53,4.75,4.75,0,0,0,1.73-1.63c.44-.68.91-1.42.49-2.24s-1.29-.52-2-.56-1.6,0-2.41-.05c-.39,0-.88,0-.9-.55s.44-.6.84-.61c.87,0,1.74,0,2.61,0Z"/><path class="cls-6" d="M132.23,189.45a3.05,3.05,0,0,0-3,.7c-4.69,3.42-9.4,6.82-14.07,10.26-6.29,4.63-12.51,9.34-18.85,13.9a5.34,5.34,0,0,0-2.61,5c.15,3.13,0,6.27,0,9.41-1,.06-.76-.73-.76-1.25,0-3.68,0-7.36,0-11a1.84,1.84,0,0,1,.89-1.65q18.84-13.8,37.66-27.62a3.45,3.45,0,0,1,.73-.29Z"/><path class="cls-7" d="M162.4,332.5a7.08,7.08,0,0,1-7.2,7.29,7.2,7.2,0,0,1-7.15-7.57,7.3,7.3,0,0,1,7.25-7.31C159.48,325,162.46,328.16,162.4,332.5Zm-12.55-.25c0,3.73,2.07,6.09,5.41,6.1,3.14,0,5.48-2.47,5.54-5.88s-2.33-6.11-5.53-6.11S149.87,328.67,149.85,332.25Z"/><path class="cls-7" d="M278.62,335.87a17.25,17.25,0,0,0,.24-4.49c0-1.46,0-2.94,0-4.41,0-.62-.13-1.57.79-1.54s.7,1,.71,1.61c0,3.55,0,7.09,0,10.63,0,.63.19,1.46-.67,1.7s-1.28-.53-1.68-1.13c-1.74-2.62-3.46-5.25-5.2-7.86-.36-.54-.59-1.22-1.5-1.57a42.28,42.28,0,0,0-.2,6.34c0,1,0,2,0,3,0,.53-.06,1.18-.79,1.16s-.73-.68-.73-1.2c0-2.54,0-5.08,0-7.62,0-1.2,0-2.4,0-3.61,0-.58-.09-1.29.62-1.55s1.24.3,1.62.87c1.81,2.73,3.6,5.47,5.42,8.19A3,3,0,0,0,278.62,335.87Z"/><path class="cls-7" d="M238.89,335.87a17.39,17.39,0,0,0,.23-4.51c0-1.33,0-2.67,0-4,0-.72-.33-1.92.81-1.91,1,0,.68,1.14.68,1.81q.06,5.12,0,10.23c0,.68.26,1.61-.69,1.88s-1.28-.55-1.68-1.15c-1.74-2.62-3.46-5.24-5.19-7.86a3.94,3.94,0,0,0-1.69-1.72v3.92c0,1.94,0,3.88-.06,5.82,0,.47-.17,1-.79,1s-.68-.43-.68-.84q0-6.12,0-12.23a.87.87,0,0,1,.79-1c.72-.08,1.08.43,1.42.94,1.77,2.67,3.53,5.35,5.31,8A3.37,3.37,0,0,0,238.89,335.87Z"/><path class="cls-7" d="M78.1,328.89c0,2.67.05,5.3,0,7.93,0,.88.53,2.44-.87,2.41-1.14,0-.66-1.53-.67-2.38-.06-3.14,0-6.28,0-9.42,0-.75-.33-1.76.69-2.09s1.37.62,1.8,1.26c1.71,2.56,3.39,5.13,5.09,7.69a3.76,3.76,0,0,0,1.45,1.61c.52-2.13.17-4.18.27-6.19.05-1.13,0-2.27.07-3.41,0-.48.21-1,.82-.9s.6.5.61.91c0,1.67,0,3.34,0,5,0,2.14,0,4.28,0,6.42,0,.63.17,1.45-.73,1.65s-1.18-.49-1.55-1c-1.85-2.79-3.67-5.59-5.52-8.37C79.26,329.56,79.09,329,78.1,328.89Z"/><path class="cls-7" d="M291.12,332.48c0,2.79,1.1,4.57,3.29,5.44s4.46.35,6.44-1.82c.48-.52,1-1.14,1.66-.68.82.59,0,1.2-.36,1.66a7.33,7.33,0,0,1-10.38,1,7.89,7.89,0,0,1-.27-11.16,7.4,7.4,0,0,1,10.3.27,5.57,5.57,0,0,1,.77,1.16.63.63,0,0,1-.13.9.78.78,0,0,1-.94,0,5.08,5.08,0,0,1-.69-.7c-1.92-2.09-4.15-2.69-6.48-1.75C292.19,327.64,291.09,329.59,291.12,332.48Z"/><path class="cls-7" d="M323,339.42c-.92-.16-.64-.82-.46-1.36.61-1.77,1.26-3.53,1.91-5.29.76-2.07,1.52-4.14,2.3-6.2.24-.63.51-1.26,1.37-1.23s1.1.66,1.34,1.29c1.39,3.76,2.79,7.52,4.16,11.29.19.52.63,1.24-.26,1.5s-1.09-.45-1.23-1c-.45-1.92-1.78-2.27-3.49-2.14s-3.89-.57-4.55,2.07A1.28,1.28,0,0,1,323,339.42Zm5.18-4.61c2.36,0,2.56-.24,1.66-2.57-.5-1.28-.72-3.63-1.66-3.57-1.42.09-1.29,2.31-1.82,3.6C325.42,334.44,325.74,334.81,328.13,334.81Z"/><path class="cls-7" d="M261.14,338.65c0,.43-.08.73-.48.8a.8.8,0,0,1-1-.54c-.56-3-2.79-2.65-5-2.68-1.66,0-2.88.31-3.35,2.1-.14.56-.47,1.28-1.23,1s-.41-1-.23-1.52q2-5.67,4.15-11.3c.23-.63.51-1.25,1.38-1.21s1,.54,1.25,1.13q2.16,5.82,4.31,11.65A3.67,3.67,0,0,1,261.14,338.65Zm-5.73-10.52a22,22,0,0,0-2.12,5.21,1,1,0,0,0,.93,1.4,20.51,20.51,0,0,0,2.6,0c.65,0,1-.45.78-1.1A25.28,25.28,0,0,0,255.41,328.13Z"/><path class="cls-7" d="M39.2,338.58c0,.34,0,.7-.36.83a.83.83,0,0,1-1.13-.56c-1-3.85-4-2.36-6.4-2.5-1.18-.07-1.4,1-1.8,1.87-.28.57-.49,1.45-1.36,1.12s-.33-1-.15-1.56q2-5.56,4.08-11.11c.22-.62.45-1.3,1.3-1.33a1.3,1.3,0,0,1,1.33,1q2.19,5.91,4.39,11.84C39.14,338.32,39.16,338.45,39.2,338.58Zm-5.75-10.49a24.54,24.54,0,0,0-2.11,5.3c-.28.8.17,1.3,1,1.36a21.34,21.34,0,0,0,2.4,0c.88,0,1.17-.54.88-1.36A27.86,27.86,0,0,0,33.45,328.09Z"/><path class="cls-7" d="M49.56,331.24a34.81,34.81,0,0,0,4.49-4.35c.42-.43.82-.88,1.26-1.29s1-.66,1.42-.18-.13.84-.42,1.16c-1.35,1.49-2.66,3-4.08,4.41-1,1-1,1.72,0,2.69,1.37,1.36,2.66,2.81,3.95,4.26.35.39,1.15.85.46,1.43-.5.43-1.15,0-1.59-.44-1.2-1.26-2.34-2.57-3.57-3.8-.43-.43-.77-1.34-1.54-1-.57.28-.28,1.09-.31,1.67,0,.87,0,1.74-.08,2.6,0,.5-.22,1-.83.9s-.63-.47-.63-.89q0-6.1,0-12.21c0-.42.18-.82.67-.85s.8.46.81.94C49.57,327.83,49.56,329.33,49.56,331.24Z"/><path class="cls-7" d="M181.64,331.08c0,1.33.08,2.67,0,4a4.9,4.9,0,0,1-5.2,4.71,4.83,4.83,0,0,1-5.17-4.72c-.1-2.73,0-5.47,0-8.21,0-.56-.12-1.41.67-1.44,1,0,.81.91.82,1.53.05,2.4,0,4.8.05,7.2.06,2.68,1.33,4.12,3.57,4.17s3.66-1.37,3.75-4.18c.07-2.4,0-4.81.06-7.21,0-.62-.13-1.55.83-1.51.79,0,.66.89.67,1.46,0,1.4,0,2.8,0,4.2Z"/><path class="cls-11" d="M195,38.13l-35.48,0c-3,0-3.16.12-3.16,3.17V90.66c0,1.12.16,2.29-.61,3.27,0-18.11,0-36.23,0-54.34,0-1.85.49-2.31,2.32-2.3,11.69.08,23.39,0,35.09.08C193.79,37.37,194.89,36.73,195,38.13Z"/><path class="cls-7" d="M427.28,332.35c0-1.81,0-3.61,0-5.41,0-1.27.53-1.83,1.79-1.8,1.54,0,3.07,0,4.61,0,.33,0,.72.06.78.47.07.58-.42.6-.8.63-.6,0-1.2,0-1.8,0-2.73,0-3.93,1.88-2.86,4.41.42,1,1.29.72,2.05.89,1,.21,2.8-.67,2.85.76,0,1.13-1.78.68-2.73.64-2.17-.12-2.32,1.12-2.32,2.79s.29,2.76,2.3,2.54a17.4,17.4,0,0,1,2.6,0c.33,0,.7.09.74.51s-.28.6-.63.6c-1.87,0-3.74,0-5.6,0-.88,0-.95-.82-1-1.51,0-1.87,0-3.73,0-5.6Z"/><path class="cls-7" d="M376,332.09c1.36-1.57,1.84-3.26,2.69-4.74.33-.58.61-1.19,1-1.73a.85.85,0,0,1,1.23-.27c.43.3.15.73,0,1.08-.5,1-1,2-1.56,3-1.48,2.57-2.73,5.18-2.33,8.29.08.61.12,1.55-.75,1.62-1.09.08-1-1-.94-1.62.56-4.14-1.91-7.21-3.58-10.58-.28-.56-1.17-1.32-.19-1.84s1.26.46,1.6,1.11C374,328.25,375,330.07,376,332.09Z"/><path class="cls-7" d="M131,325.22c.71.06,1,.62,1.26,1.16.76,1.48,1.48,3,2.25,4.46.18.33.44.81.73.87.57.11.67-.53.87-.91.74-1.42,1.43-2.87,2.17-4.29.36-.69.78-1.71,1.72-1.15.77.45-.06,1.17-.31,1.72a27,27,0,0,1-1.56,3,11.83,11.83,0,0,0-2,7.38c.07.71.26,1.88-.89,1.87-1,0-.9-1.09-.81-1.75.54-3.84-1.68-6.74-3.27-9.85-.27-.54-.57-1.06-.8-1.61S130.38,325.25,131,325.22Z"/><path class="cls-7" d="M202.53,332.22c0-1.74,0-3.48,0-5.21,0-1.23.42-1.9,1.73-1.87,1.61,0,3.21,0,4.81,0,.47,0,1.06,0,1.11.61.07.76-.61.77-1.13.79-1.07.05-2.14.05-3.21.06-1.82,0-1.7,1.3-1.71,2.52s0,2.4,1.78,2.49c1.08.05,3-.66,3,.77,0,1.13-1.91.58-3,.63-1.39.07-1.89.7-1.86,2,0,1.07,0,2.14,0,3.21,0,.54-.14,1.16-.87,1.08-.58-.07-.64-.63-.64-1.1,0-2,0-4,0-6Z"/><path class="cls-7" d="M460.17,331.78c0,1.46.07,2.93,0,4.39-.1,1.66.62,2.24,2.23,2.2.84,0,2.43-.48,2.4.52,0,1.22-1.6.62-2.48.64-3.73.08-3.73,0-3.73-3.8,0-2.93,0-5.85,0-8.78,0-.61-.18-1.56.78-1.53s.76.95.77,1.57c0,1.59,0,3.19,0,4.79Z"/><path class="cls-7" d="M357,332.3c0-1.67-.05-3.33,0-5,0-.69-.39-1.89.83-1.86,1,0,.71,1.12.72,1.79,0,2.8,0,5.59,0,8.39,0,2.64.05,2.67,2.67,2.72.46,0,.93,0,1.39,0s.69.15.7.55-.31.58-.66.58c-1.53,0-3.06,0-4.59,0-1,0-1.06-.84-1.09-1.6,0-.14,0-.27,0-.4Z"/><path class="cls-7" d="M445.32,331.82c0,1.4.08,2.8,0,4.19-.11,1.7.51,2.44,2.28,2.37.83,0,2.37-.54,2.38.55s-1.52.59-2.34.6c-4.24.05-3.87.35-3.89-3.84,0-2.86,0-5.72,0-8.58,0-.65-.28-1.72.82-1.69.9,0,.72,1,.73,1.61,0,1.59,0,3.19,0,4.79Z"/><path class="cls-7" d="M342.61,332.27c0-1.86,0-3.73,0-5.59,0-.58,0-1.35.84-1.28.68.06.69.73.7,1.26,0,3.06.1,6.12,0,9.18-.07,1.91.61,2.74,2.53,2.5a2,2,0,0,1,.59,0c.59.12,1.63-.31,1.62.62s-1,.58-1.63.58c-5.37,0-4.59.52-4.67-4.48,0-.93,0-1.86,0-2.79Z"/><path class="cls-7" d="M312.11,332.35c0-1.93,0-3.85,0-5.78,0-.53,0-1.18.76-1.18s.77.65.77,1.18q0,5.79,0,11.58c0,.52-.05,1.17-.77,1.17s-.74-.66-.75-1.18C312.1,336.21,312.11,334.28,312.11,332.35Z"/><path class="cls-7" d="M65.68,332.19c0-1.86,0-3.73,0-5.59,0-.52,0-1.18.73-1.21s.8.61.8,1.15q0,5.79,0,11.57c0,.53,0,1.2-.75,1.21-.87,0-.78-.78-.79-1.34C65.66,336.05,65.68,334.12,65.68,332.19Z"/><path class="cls-7" d="M220.54,332.43c0,1.93,0,3.86,0,5.79,0,.54-.11,1.15-.84,1.11s-.67-.6-.67-1.06c0-3.93,0-7.85,0-11.78,0-.53.08-1.17.83-1.09s.7.72.7,1.24c0,1.93,0,3.86,0,5.79Z"/><path class="cls-5" d="M131.53,145.83l.7-.91C132.25,145.42,131.91,145.64,131.53,145.83Z"/><path class="cls-9" d="M155.68,228.38l.3.34C155.75,228.72,155.65,228.61,155.68,228.38Z"/><path class="cls-6" d="M218.64,228.4l.33.32C218.73,228.75,218.63,228.63,218.64,228.4Z"/><path class="cls-6" d="M131.92,228.72l.31-.31C132.25,228.63,132.14,228.73,131.92,228.72Z"/><path class="cls-11" d="M257.56,228.7a.66.66,0,0,0,.28-.27Z"/></svg>